<?xml version="1.0" encoding="UTF-8"?>
<svg id="Camada_2" data-name="Camada 2" xmlns="http://www.w3.org/2000/svg" viewBox="0 0 412.17 244.1">
  <defs>
    <style>
      .cls-1 {
        fill: #fcc713;
      }

      .cls-2 {
        fill: #fff;
      }

      .cls-3 {
        fill: #3a1e10;
      }

      .cls-4 {
        fill: #f0881b;
      }

      .cls-5 {
        fill: #fefdfe;
      }

      .cls-6 {
        fill: #efeae8;
      }

      .cls-7 {
        fill: #3c2115;
      }

      .cls-8 {
        fill: #141006;
      }
    </style>
  </defs>
  <g id="Camada_1-2" data-name="Camada 1">
    <g>
      <g>
        <g>
          <g>
            <g>
              <path class="cls-1" d="M70.08,59.67c.15.83-.12.49-.45.66-2.06,1.06-4.88,1.82-7.14,2.43-17.6,4.78-40.42,4.42-56.47-4.96-.98-.57-7.07-4.54-5.85-5.8,20.65-.38,41.13,1,61.78.95,2.51,2.33,4.75,5.35,8.14,6.71Z"/>
              <path class="cls-1" d="M64.97,52.96l11.32-.97h52.38c.28,0,.46.12.63.33.44.53,3.15,9.66,3.05,10.37-.16,1.04-2.72,1.08-3.67,1.14-10.41.67-24.66.5-35.15,0-7.21-.35-15.88-1.66-22.18-5.27-2.36-1.35-4.96-3.24-6.38-5.59Z"/>
              <path class="cls-1" d="M22.9,69.31c.36-.33,2.34-.63,2.97-.71,6.49-.84,13.79-.34,20.43-.96,5.41-.51,11.32-1.56,16.58-2.89,2.4-.61,9.87-3.5,11.53-3.45,1.28.04,6.28,3.23,8.75,3.65,1.98.34,5.79-.27,7.15.19.4.14.91.99.82,1.35-.4,1.72-19.98,7.75-22.83,8.47-10.57,2.66-29.13,6.66-38.98,1.68-1.4-.71-8.33-5.6-6.42-7.32Z"/>
              <path class="cls-1" d="M101.05,74.67c.31.42-1.7,1.85-2.13,2.18-10.32,7.89-36.66,15-49.39,13.42-3.35-.42-10.3-2.12-5.79-6.35,4.75-4.47,15.17-4.51,21.62-5.84,8.77-1.8,17.42-4.48,25.49-8.35,2.47-1.19,4.61-3.15,7.5-3.67.04,1.13-.78,2.15-.81,3.36-.05,2.04,1.34,4.9,3.52,5.26Z"/>
              <path class="cls-1" d="M96.9,93.81c-3.91,1.59-7.89,3.04-11.8,4.64s-4.24,2.62-9.11,2.38c-2.46-.12-7.06-.72-9.08-2.09-5.42-3.67.83-7.55,4.7-8.67,8.95-2.57,15.35-2.83,24.02-7.58,1.37-.75,7.38-4.98,8.15-4.96.66.02,2.04,2.66,3.32,3.05s3.09,0,4.49.14c.23.2-1.97,3-2.24,3.34-1.29,1.61-2.85,3.03-4.14,4.64-1.23.01-7.52-.19-8,.14-.53.37-.3,4.04-.3,4.97Z"/>
              <path class="cls-1" d="M133.29,65.41l.94,11.62c-.07,1.89-3.59,3.88-5.19,4.71-2.97,1.53-12.53,5.58-14.34,1.14s4.38-5.88,6.79-7.73c2.72-2.08,3.41-4.77,5.28-7.17s3.8-2.23,6.52-2.58Z"/>
              <path class="cls-1" d="M124.35,66.04c.83.83-2.65,6.04-3.5,6.87-1.74,1.71-9.72,6.56-11.99,6.54-4.71-.04-.87-8.07.95-9.92,1.31-1.32,5.59-3.5,7.36-3.5h7.18Z"/>
              <path class="cls-1" d="M96.9,97.32c-.04,4.14.01,8.3,0,12.45-1.59.09-2.99.46-4.63.31-4.41-.4-9.45-5.52-4.42-8.88l9.05-3.88Z"/>
              <path class="cls-1" d="M102.56,65.16c1.52-.28,5.9-.34,6.08,1.73.03.39-2.23,4.49-2.63,4.91-.67.71-2.57,1.6-3.53,1.59-3.65-.02-4.37-7.42.08-8.23Z"/>
              <path class="cls-1" d="M108.39,88.7c1.29-1.15,2.48-3.77,3.68-4.78,1.38-1.17,2.18,1.23,3.37,2.05,3.59,2.45,5.1-.09,8.48-.43,2.72-.27,3.28.73,3.95,3.16-6.49.02-12.99-.03-19.48,0Z"/>
            </g>
            <g>
              <path class="cls-1" d="M412.01,52c1.22,1.26-4.87,5.22-5.85,5.8-15.97,9.37-38.96,9.77-56.47,4.96-.89-.25-7.04-2.16-7.27-2.47-.3-.39.29-.71.53-.9,2.55-1.97,5.43-3.45,7.04-6.44,5.19-.09,10.4.14,15.59.02,4.72-.11,9.62-.56,14.34-.66,10.7-.23,21.38-.37,32.1-.3Z"/>
              <path class="cls-1" d="M347.2,52.96c-4.25,6.35-13.34,9.15-20.64,10.16-14.06,1.94-29.46-.05-43.71.7-.93-.18-2.51-.05-2.72-1.13-.11-.58,2.56-10.57,3.1-10.7h52.32s11.64.98,11.64.98Z"/>
              <path class="cls-1" d="M337.54,61.32c1.18-.23,9.75,2.83,11.82,3.36,5.35,1.37,11,2.47,16.51,2.96,6.75.6,13.72.12,20.43.96,2.38.3,4.38.41,2.54,3.17-7.09,10.59-25.72,6.99-36.27,5.03-8.54-1.59-18.17-4.23-26.11-7.73-.69-.3-4.8-2.16-4.97-2.38-.26-.32.6-1.41,1.03-1.54,1.78-.54,5.16.11,7.76-.54,2.47-.62,5.41-2.94,7.26-3.29Z"/>
              <path class="cls-1" d="M311.44,74.67c2.31-.53,3.65-2.98,3.53-5.26-.07-1.27-1.13-2.23-.81-3.37,3.63.83,6.53,3.28,9.84,4.85,9.24,4.37,20.13,6.65,30.16,8.46,4.86.88,9.78.58,13.79,4.08s1.94,5.21-2.3,6.32c-9.01,2.35-24.46-1.38-33.38-4.16-6.3-1.96-13.08-4.46-18.38-8.44-.48-.36-2.8-2.02-2.45-2.49Z"/>
              <path class="cls-1" d="M315.28,93.81c-.01-1.7,0-3.41,0-5.11-2.66,0-5.33.01-7.98,0-.97-1.7-2.58-2.86-3.82-4.32-.3-.35-2.82-3.44-2.56-3.66,2.18-.1,4.32.51,6.08-1.1,1.64-1.51.51-2.92,3.28-1.39,7.82,4.3,11.62,7.44,20.83,9.81,3.8.98,15.32,2.12,16.35,6.64,1.14,5-7.97,5.99-11.27,6.15-5.21.25-6.57-1.52-11.02-3.34-3.24-1.33-6.57-2.56-9.89-3.67Z"/>
              <path class="cls-1" d="M279.72,65.43c.6-.19,3.9.69,4.57,1.1,2.08,1.27,3.86,6.43,6.71,8.61,2.63,2.02,8.04,2.87,6.96,7.58-.3,1.29-2.42,2.36-3.64,2.45-2.9.2-13.34-4.13-15.3-6.36-.59-.67-.81-1.17-.81-2.09,0-3.25,1.01-7.17,1-10.52.01-.36.14-.67.51-.78Z"/>
              <path class="cls-1" d="M288.62,66.04h6.7c4.25,0,9.64,5,10.3,9.17,1.04,6.54-4.08,3.89-7.48,2.05s-7.49-4.59-9.11-8.13c-.24-.51-1.33-3.09-.42-3.09Z"/>
              <path class="cls-1" d="M315.28,109.77c0-4.25.01-8.52,0-12.77,3.49,2.1,14.66,3.98,10.21,10.05-2.34,3.2-6.6,3.45-10.21,2.71Z"/>
              <path class="cls-1" d="M311.98,72.65c-3.13,2.89-7.17-2.42-7.91-5.17-.84-3.13,6.21-2.91,7.86-1.44,1.53,1.36,1.51,5.26.05,6.61Z"/>
              <path class="cls-1" d="M304.1,88.7c-6.27-.03-12.56.01-18.84,0-.34-6.37,6.69-1.31,9.71-1.6,2.33-.22,4.23-3.44,4.51-3.51.43-.11,4.3,4.23,4.62,5.11Z"/>
            </g>
          </g>
          <g>
            <path class="cls-7" d="M136.49,88.7c1,0,6.49.18,6.74-.18,3.64-18.74-2.05-37.68-11.16-53.97-.78-1.4-3.81-5.51-4.08-6.48-.1-.35-.13-.54.17-.81l10.4-10.63c5.16,3.9,11.07,6.92,17.4,8.4,18.86,4.41,35.96-4.49,50.29-15.81,13.81,10.79,30.17,19.8,48.37,16.13,6.85-1.38,13.11-4.59,18.68-8.7l10.87,10.78c.21.24.07.39,0,.62-.27.76-2.19,3.22-2.78,4.27-9.63,17.05-15.72,36.61-12.06,56.37,2.22.05,4.46,0,6.69.02,3.08.03,6.18,0,9.26,0,6.27.01,12.56-.03,18.84,0,1.06,0,2.13,0,3.19,0,2.66,0,5.33,0,7.98,0,0,1.7-.02,3.41,0,5.11,0,1.06,0,2.13,0,3.19.01,4.25,0,8.52,0,12.77.02,14.15-.01,28.3,0,42.45-8.08.02-16.18-.03-24.27,0-2.44,0-4.9,0-7.34,0,2.09,12.73.92,25.36-4.1,37.24-6.6,15.62-15.4,21.98-30.86,27.88-14.34,5.47-29.97,8.43-42.47,17.85-2.91-1.6-5.52-3.7-8.46-5.26-14.94-7.91-33.43-10.04-47.55-18.85-15.31-9.56-23.08-31.66-22.37-49.12l.96-9.74c-2.44,0-4.9.01-7.34,0-8.19-.03-16.39.02-24.59,0,.04-14.15-.04-28.31,0-42.45.01-4.14-.04-8.3,0-12.45.01-1.2,0-2.41,0-3.51,0-.92-.23-4.6.3-4.97.48-.33,6.77-.13,8-.14,1.06,0,2.13,0,3.19,0,6.49-.03,12.99.02,19.48,0,2.87,0,5.75.02,8.62,0ZM213.43,91.58c.21-2.71-.29-5.8,0-8.46.49-4.56,8.13-8.63,11.19-11.8,3.26-3.39,1.47-6.46,1.57-10.56.03-1.16.54-2.38.36-3.63,2.32-.36,4.87-1.11,7.19-1.26,5.97-.41,10.69,3.57,18.15,2.83,6.06-.6,13.19-6.94,14.7-12.76.67-2.59.23-6.91-3.37-5.92-4.74,1.31-6.54,6.86-12.52,5.84-2.34-.4-5.41-3.75-5.83-5.96-.05-.26,1.09-2.85,1.31-3.19,1.67-2.57,8.35-5.42,10.98-7.37.49-.71-2.52-1.74-3.11-1.83-5.33-.89-13.31,1.09-17.17,5.02-2.6,2.65-4.52,7.42-7.52,9.4-2.68,1.78-6.49,2.71-9.45,3.95-.79.33-3.9,2.23-4.13,2.26-1.27.2-.59-3.03-.44-3.17.17-.15,1.3.72,1.77.02,1.21-1.81-4.77-6.74-6.55-7.2-2.71-.71-5.69,1.18-5.76,4-2.49-1.06-5.41-1.67-7.78.04-.44.32-.63,1.04-1.05,1.18-.62.2-1.55-.02-2.37.19-.92.24-3.69,1.18-4.37,1.67-2.04,1.48-.66,2.97-.08,4.58.21.02.43,0,.64,0-.42-1.39.43-1.8.76-2.55.15-.34-.24-.78.18-1.12.83-.64,3.69-1.73,4.67-1.14.92.55.71,2.05,1.73,1.93-.21-2.36.05-4.37,2.74-4.76,6.61-.95,5.78,3.98,4.98,8.75l.57,2.71.78-12.46c1.76-3.28,5.33-1.95,7.53.17,3.28,3.18-.41,1.52-.64,1.76l.37,5.69c1.49.39,2.97,1.39,4.33,1.9,1.7.63,6.52,1.38,7.05,3.17.45,1.55.16,4.71-1.76,5.13-1.06.24-4.56,0-5.61-.32-.31-.1-4.71-3.91-4.97-4.29-.93-1.35-1.03-3.63-1.01-5.22-.83-.34-.51.57-.84.64-2.52.53-4.8-.46-4.24,3.64.25,1.89.98,1.96,2.7,1.77,2.32-.25,1.07-1.06,1.59-2.87.46.3.9,2.76.8,2.87-.23.25-3.58.68-4.15.8,1.04,1.43,4.12-.2,4.58-.11,2.03.41-.68,2.35-2.18,2.51-2.06.21-2.32-.61-4-1.28,1.54,1.54,1.08,6.01,2.58,6.83s3.77.41,5.4.5c-.39-.38-.56-2.11-.67-2.2-.5-.43-3.93.66-4.44-.67,1.58.3,4.49-1.08,5.86-.6.56.2,2.13,5.03,5.55,5.62.56.1,3.61.06,2.32-.73-1.38-.84-5.29-.47-5.75-3.02l1.59.32c.37-.96-1.98-1.28-.96-1.75l6.7-1.76c.26,1.89.75,5.14.07,6.93-.51,1.35-3.37,4.32-4.54,5.36-1.37,1.22-7.32,6.1-8.61,6.72s-5.34,1.18-6.53.43c-.58-.36-.6-1.37-1.47-1.24-.36,1.05,2.67,2.92,2.23,3.51-3.05.91-1.86.12-2.56-1.75-.86-2.32-.95.34-1.31.92-.86,1.41-4.73,1.81-4.3.18.25-.92,1.26-1.83.82-3.18-1.64,1.72-4.15,1.45-6.06,2.74-2.01.51-2.21-2.69-1.84-4.1.52-1.97,4.17-5.68,6.29-6.16,2.46-.56,2.04-.25,2.73,1.77,1.34-2.15,2.89-3.54,5.05-4.84.28-.17,4.55-1.77,3.73-2.49-1,.34-5.15-.7-5.66-1.36-.21-.26-1.89-5.43-2.17-6.29-.38-1.15-.25-2.74-.86-3.93l-2.16-4.06c.4,5.68,3.16,10.84,5.11,16.11-1.3.94-3.76,1.68-5.11.65l-6.98-13.77c-.39-.62-.45-1.37-.69-2.03-1.01-.09-1.2-.98-1.94-1.41-3.43-2-8.17,3.87-7.07,7.07.21.62,1.91,2.64,1.67,2.95-4.69,2.65-9-.29-13.88-.65-7.28-.53-14.23,1.17-16.83,8.73-.49,1.42-1.46,6.1.82,5.96.75-.04,7.17-3.45,8.39-4.09.48-.25.79-.65,1.21-.96,3.54,2.39,7.91,4.44,5.75,9.51-1.04,2.45-7.41,5.41-10.06,6.07-.53.57,2.6,2.67,3.02,2.88,5.22,2.58,13.4-.92,16.93-5.11,1.87-2.22,2.62-4.84,4.94-6.87,1.4-1.22,3.55-2.52,5.43-2.71-1.42,1.92-3.9,1.29-3.04,4.47.5,1.88,1.88,4.38,2.07,6.57.12,1.29-.55,2.54-.62,3.8-.12,1.95.07,3.94,0,5.9h-86.2v57.45h212.63v-57.45H99.77v57.45h212.63v-57.45h-98.97ZM212.79,49.13c-1.93,3.52,6.45,6.08,6.71,3.34s-2.34.25-2.56.35c-1,.46-3.93-3.86-4.15-3.68ZM205.13,56.47c-.15-2.82-5.05-.21-4.15.96,1.28-.75,2.65-1.12,4.15-.96ZM193.96,58.7c.27.24,4.12-1.36,4.14-1.75.09-1.36-4.84,1.13-4.14,1.75ZM206.41,62.21c.23-.26-1.71-4.19-1.9-4.33-.38-.27-2.42.39-2.52.55-.3.46.33,3.86.64,4.06.6.39,2.96-.19,3.79-.28ZM200.33,64.44c.28-.41-1.84-4.08-2.23-4.32-.32-.2-2.13.44-2.19.54-.4.62.39,3.34,1.05,3.81.9.65,2.38.25,3.37-.04ZM196.22,213.52c1.82.74,3.77.95,5.64,1.49,5.28,1.53,8.19,3.72,13.96,3.27,9.49-.73,16.54-3.46,25.31-6.29,3.45-1.12,11.15-2.68,13.79-4.41.77-.5,5.12-5.17,5.76-6.05.54-.74,1-1.68,1.26-2.57-.79-5.64-.39-11.97-1.29-17.5-.39-2.43-1.16-4.99-1.64-7.62-.71-3.92-7.61-6.36-11.03-7.48-8.89-2.92-18.36-4.29-27.67-4.89-1.35-.09-2.82.14-4.16,0-3.25-.33-9.26-6.04-13.14-7.61-6.27-2.53-25-2.41-32.21-1.98-4.51.27-10.03,2.35-13.35,5.48-1.81,1.71-.77,3.64-3.18,5.12-1.38.85-3.07.76-4.07,1.68-1.54,1.42-3.03,5.27-3.19,7.34-.43,5.46-.4,14.88,4.64,18.36,2.31,1.6,4.43-.47,4.62-.32.1.07.72,1.23,1.5,1.86,4.5,3.63,10.74,6.4,15.6,9.62,2.57,5.33,3.94,16.46,12.1,15.3,1.35-.19,4.88-2.09,5.45-2.08,1.41,0,4.29,2.36,5.3-.74Z"/>
            <path class="cls-4" d="M276.01,88.7c-2.23-.02-4.46.03-6.69-.02-3.66-19.76,2.43-39.32,12.06-56.37.6-1.05,2.52-3.51,2.78-4.27.08-.22.22-.38,0-.62l-10.87-10.78c-5.57,4.11-11.82,7.32-18.68,8.7-18.2,3.67-34.56-5.35-48.37-16.13-14.33,11.32-31.43,20.23-50.29,15.81-6.33-1.48-12.24-4.5-17.4-8.4l-10.4,10.63c-.3.27-.27.46-.17.81.27.97,3.3,5.09,4.08,6.48,9.11,16.29,14.8,35.23,11.16,53.97-.25.36-5.74.18-6.74.18,4.7-21.55-4.27-44.36-17.73-60.97v-.94s18.89-19.13,18.89-19.13c4.58,3.65,8.97,7.18,14.49,9.39,20.33,8.13,39.55-3.72,54.15-17.05,13.59,12.02,30.78,23.95,49.92,18.33,5.72-1.68,10.9-5.06,15.48-8.78.65-.53,1.66-2.09,2.5-1.87l18.91,19.12v.94c-12.8,17.03-21.73,39.43-17.09,60.97Z"/>
            <path class="cls-7" d="M197.47,91.58c-.55-1.71-.25-4.24-.7-5.84-.28-.98-1.86-1.03-1.85-2.14,2.25.45,12.9-2.42,14.08-.77.43.61.42,3.35.61,4.28l.65-.47.63-2.4.32,7.34h-13.73Z"/>
            <g>
              <path class="cls-5" d="M189.17,49.45c-.57-1.61-1.96-3.1.08-4.58.67-.49,3.45-1.43,4.37-1.67.81-.21,1.75.02,2.37-.19.42-.14.61-.87,1.05-1.18,2.36-1.71,5.28-1.1,7.78-.04.07-2.81,3.04-4.7,5.76-4,1.78.46,7.76,5.39,6.55,7.2-.47.7-1.6-.17-1.77-.02-.15.13-.83,3.36.44,3.17.23-.04,3.34-1.93,4.13-2.26,2.96-1.25,6.77-2.17,9.45-3.95,2.99-1.98,4.92-6.75,7.52-9.4,3.86-3.93,11.84-5.92,17.17-5.02.58.1,3.59,1.13,3.11,1.83-2.64,1.96-9.31,4.81-10.98,7.37-.22.34-1.36,2.93-1.31,3.19.42,2.21,3.49,5.57,5.83,5.96,5.99,1.02,7.78-4.53,12.52-5.84,3.6-.99,4.04,3.33,3.37,5.92-1.5,5.81-8.64,12.16-14.7,12.76-7.46.74-12.18-3.24-18.15-2.83-2.33.16-4.88.9-7.19,1.26.17,1.25-.33,2.47-.36,3.63-.11,4.1,1.69,7.17-1.57,10.56-3.05,3.17-10.7,7.23-11.19,11.8-.28,2.66.21,5.75,0,8.46h-2.23l-.32-7.34-.63,2.4-.65.47c-.19-.93-.17-3.67-.61-4.28-1.18-1.66-11.83,1.22-14.08.77,0,1.1,1.57,1.16,1.85,2.14.45,1.6.16,4.13.7,5.84h-4.15l.16-7.66c-1.46.07-2.06,1.21-2.92,1.86-.45.34-2.3,1.43-2.37,1.55-.61.95-.15,3.1-.29,4.26h-1.92c.08-1.95-.11-3.94,0-5.9.08-1.26.74-2.51.62-3.8-.2-2.19-1.57-4.69-2.07-6.57-.85-3.18,1.62-2.56,3.04-4.47-1.88.18-4.03,1.48-5.43,2.71-2.32,2.03-3.07,4.65-4.94,6.87-3.54,4.19-11.71,7.69-16.93,5.11-.42-.21-3.56-2.31-3.02-2.88,2.65-.66,9.01-3.61,10.06-6.07,2.16-5.07-2.21-7.13-5.75-9.51-.42.31-.74.71-1.21.96-1.22.64-7.65,4.05-8.39,4.09-2.28.13-1.31-4.54-.82-5.96,2.6-7.57,9.55-9.26,16.83-8.73,4.87.35,9.18,3.3,13.88.65.24-.32-1.46-2.33-1.67-2.95-1.1-3.2,3.64-9.07,7.07-7.07.74.43.93,1.32,1.94,1.41.24.66.29,1.41.69,2.03l6.98,13.77c1.35,1.03,3.81.29,5.11-.65-1.95-5.26-4.71-10.43-5.11-16.11l2.16,4.06c.61,1.18.48,2.78.86,3.93.28.86,1.96,6.03,2.17,6.29.52.66,4.66,1.7,5.66,1.36.82.72-3.45,2.32-3.73,2.49-2.16,1.3-3.71,2.7-5.05,4.84-.69-2.02-.27-2.33-2.73-1.77-2.11.48-5.77,4.18-6.29,6.16-.37,1.41-.17,4.61,1.84,4.1,1.91-1.29,4.42-1.02,6.06-2.74.45,1.35-.57,2.25-.82,3.18-.43,1.63,3.44,1.23,4.3-.18.36-.59.45-3.24,1.31-.92.69,1.87-.49,2.66,2.56,1.75.44-.59-2.59-2.46-2.23-3.51.87-.12.89.88,1.47,1.24,1.19.75,5.22.2,6.53-.43s7.24-5.5,8.61-6.72c1.17-1.04,4.02-4.01,4.54-5.36.68-1.79.19-5.04-.07-6.93l-6.7,1.76c-1.02.48,1.33.79.96,1.75l-1.59-.32c.47,2.55,4.37,2.18,5.75,3.02,1.29.78-1.76.82-2.32.73-3.42-.6-4.98-5.43-5.55-5.62-1.38-.48-4.28.9-5.86.6.51,1.33,3.94.24,4.44.67.11.09.28,1.82.67,2.2-1.63-.09-3.94.31-5.4-.5s-1.04-5.29-2.58-6.83c1.68.67,1.94,1.5,4,1.28,1.51-.16,4.21-2.1,2.18-2.51-.46-.09-3.54,1.54-4.58.11.57-.12,3.92-.55,4.15-.8.1-.11-.34-2.57-.8-2.87-.52,1.81.73,2.62-1.59,2.87-1.72.19-2.44.12-2.7-1.77-.55-4.11,1.73-3.12,4.24-3.64.33-.07.01-.98.84-.64-.02,1.58.07,3.87,1.01,5.22.26.38,4.66,4.19,4.97,4.29,1.05.33,4.55.55,5.61.32,1.91-.43,2.21-3.59,1.76-5.13-.52-1.79-5.35-2.53-7.05-3.17-1.36-.51-2.84-1.51-4.33-1.9l-.37-5.69c.23-.24,3.93,1.42.64-1.76-2.19-2.12-5.77-3.45-7.53-.17l-.78,12.46-.57-2.71c.8-4.77,1.63-9.7-4.98-8.75-2.69.39-2.96,2.4-2.74,4.76-1.02.11-.82-1.38-1.73-1.93-.98-.59-3.83.5-4.67,1.14-.43.33-.03.77-.18,1.12-.33.75-1.18,1.16-.76,2.55-.21-.01-.43.02-.64,0ZM252.06,28.39c-6.04-.47-12.5,2.38-14.28,8.54-1.38,4.79,1.76,15.96,7,17.72,8.35,2.8,15.87-5.33,18.93-12.22.19,2.54-1.49,4.96-3.04,6.85-5.68,6.89-15.54,10.2-21.54,1.77-1.41,3.38-5.56,2.63-8.72,3.74-.51.18-.85-.17-.7.72,2.8-.38,5.95-.96,8.78-.64,2.14.24,4.54,1.93,7.06,2.2,3.18.34,7.79-.58,10.56-2.15,4.96-2.8,9.37-8.42,8.72-14.41-.42-.48-3.26,2.47-3.72,2.82-1.56,1.15-5.2,3.61-7,3.86-1.3.18-5.61.02-6.7-.59-.29-.16-3.89-4.41-4.29-4.97-1.55-2.16-.74-3.26.26-5.48.87-1.93,2.08-3.87,3.78-5.15l4.89-2.61ZM226.23,52.67c.28-.33,7.29-2.24,8.25-2.44.78-.16,3.07.05,3.21-.63.11-.54-1.74-2.25-2.08-3.02-.71-1.6-.33-3.46-1.12-5.11-.75.53-1.26,1.76-1.94,2.36-.45.4-1.04.7-1.57.99l-13.73,3.99c2.38,2.4,7.71,1.12,8.62,5.1.67.07.1-.95.35-1.24ZM186.93,57.75c.11.14.26.46.32.64.05.17-.05.45,0,.64,0,.02-.11-.02,0,.32.66,2.01,2.52,6.97,5.57,4.77.08-.05,1.11-1.39,1.13-1.48.35-1.71-2.15-4.39-2.93-5.94-1.26-2.52-3.15-10.49-7.13-7.23-1.89,1.55-1.84,3.9-.33,5.75.99,1.21,2.68,1.64,3.36,2.55ZM183.74,57.74c.39-.34-1.81-2.36-2.23-2.55.7,1.58.1,3.05,2.23,2.55ZM170.97,81.69c2.99-1.37,3.66-4.14,3.52-7.2-.32-7.34-3.29-16.28-12.27-15.42-5.51.53-10.62,6.66-10.73,12.09l7.45-4.52c2.34-1.61,4.79-.3,6.75,1.34.7.58,3.53,3.74,3.84,4.46,2.06,4.84-3.31,10.6-8.14,10.86-.04.57.77.22,1.26.49.78.43.81,1.04,2.09,1.13,4.82.33,11-3.83,12.89-8.19.98-2.26.43-5.36,2.26-7.31,1.41-1.51,3.26-.25,3.51-.48.05-.05-.04-.84.47-1.29.71-.63,3.82-1.42,4.99-2.05.45-.24.78.02.62-.8l-14.05,3.51c.41,1.37,1.51,2.91,1.58,4.35.16,3.68-1.32,6.57-4.29,8.73-.31.22-1.59,1.17-1.75.32ZM184.63,59.41c-.72-.43-4.44,1.15-5.83,1.22-2.55.14-4.99-.88-7.51-.81,1.62,1.36,2.43,2.61,3.04,4.62.11.35.21,3.29,1.1,2.56.19-.16.08-1.69,1.52-2.48,2.2-1.2,6.51-2.03,9.03-2.63.27-.4-1.22-2.41-1.34-2.49ZM196.83,66.68c-1.93.56-2.41-1.56-4.15-.64.04.76,1.74.51,1.91.64l-.96,1.27c.4.29,4.05-.63,3.19-1.27ZM189.48,67.64c-2.39.7-8.77,2.84-9.96,4.88-.16.27-.7,1.68-.57,1.82l4.81-3.64c1.12-.35,2.02-1.37,2.94-1.85.84-.43,2.22-.44,2.78-1.21ZM190.12,73.39c-1.58-.22-1.74.51-1.59,1.91.39.49,1.79-1.74,1.59-1.91Z"/>
              <path class="cls-7" d="M187.89,91.58c.14-1.16-.32-3.31.29-4.26.08-.12,1.93-1.21,2.37-1.55.86-.64,1.46-1.79,2.92-1.86l-.16,7.66h-5.43Z"/>
              <path class="cls-7" d="M252.06,28.39l-4.89,2.61c-1.71,1.28-2.91,3.22-3.78,5.15-1,2.22-1.81,3.32-.26,5.48.4.55,4,4.81,4.29,4.97,1.08.61,5.39.77,6.7.59,1.8-.25,5.44-2.71,7-3.86.47-.34,3.31-3.29,3.72-2.82.65,5.99-3.77,11.61-8.72,14.41-2.76,1.56-7.38,2.49-10.56,2.15-2.52-.27-4.92-1.96-7.06-2.2-2.83-.32-5.98.26-8.78.64-.15-.89.18-.54.7-.72,3.16-1.12,7.31-.36,8.72-3.74,6,8.43,15.86,5.12,21.54-1.77,1.56-1.89,3.24-4.31,3.04-6.85-3.06,6.9-10.58,15.03-18.93,12.22-5.24-1.76-8.38-12.93-7-17.72,1.77-6.16,8.24-9.01,14.28-8.54Z"/>
              <path class="cls-7" d="M170.97,81.69c.16.84,1.45-.1,1.75-.32,2.97-2.16,4.46-5.05,4.29-8.73-.06-1.44-1.17-2.99-1.58-4.35l14.05-3.51c.16.82-.17.56-.62.8-1.16.63-4.28,1.42-4.99,2.05-.5.45-.41,1.24-.47,1.29-.24.23-2.1-1.03-3.51.48-1.83,1.95-1.29,5.05-2.26,7.31-1.89,4.37-8.06,8.52-12.89,8.19-1.28-.09-1.32-.7-2.09-1.13-.49-.27-1.3.09-1.26-.49,4.83-.26,10.2-6.02,8.14-10.86-.31-.72-3.14-3.88-3.84-4.46-1.97-1.64-4.41-2.95-6.75-1.34l-7.45,4.52c.11-5.42,5.22-11.56,10.73-12.09,8.97-.86,11.95,8.08,12.27,15.42.13,3.06-.54,5.83-3.52,7.2Z"/>
              <path class="cls-7" d="M226.23,52.67c-.25.29.32,1.31-.35,1.24-.92-3.98-6.25-2.71-8.62-5.1l13.73-3.99c.53-.29,1.11-.59,1.57-.99.68-.6,1.19-1.83,1.94-2.36.79,1.64.41,3.5,1.12,5.11.34.77,2.19,2.48,2.08,3.02-.14.67-2.43.47-3.21.63-.96.2-7.97,2.11-8.25,2.44Z"/>
              <path class="cls-7" d="M186.93,57.75c-.68-.91-2.37-1.34-3.36-2.55-1.51-1.84-1.56-4.2.33-5.75,3.98-3.26,5.87,4.72,7.13,7.23.77,1.55,3.28,4.22,2.93,5.94-.02.09-1.06,1.43-1.13,1.48-3.05,2.2-4.91-2.76-5.57-4.77v-.32c-.05-.19.05-.47,0-.64.55,0,4.5-.88,3.51-1.91-.52-.54-2.8,2.17-3.83,1.27ZM193,63.17l-1.92-3.51c-3.71.93-1.03,5.03,1.92,3.51Z"/>
              <path class="cls-7" d="M184.63,59.41c.13.07,1.61,2.09,1.34,2.49-2.51.6-6.82,1.43-9.03,2.63-1.44.78-1.32,2.32-1.52,2.48-.89.72-.99-2.21-1.1-2.56-.61-2.01-1.43-3.25-3.04-4.62,2.52-.07,4.96.95,7.51.81,1.4-.08,5.11-1.65,5.83-1.22Z"/>
              <path class="cls-7" d="M189.48,67.64c-.56.77-1.94.77-2.78,1.21-.92.48-1.82,1.5-2.94,1.85l-4.81,3.64c-.13-.14.42-1.55.57-1.82,1.19-2.05,7.56-4.18,9.96-4.88Z"/>
              <path class="cls-7" d="M196.83,66.68c.86.64-2.79,1.57-3.19,1.27l.96-1.27c-.17-.13-1.87.12-1.91-.64,1.74-.93,2.22,1.2,4.15.64Z"/>
              <path class="cls-7" d="M183.74,57.74c-2.13.5-1.53-.97-2.23-2.55.42.19,2.62,2.21,2.23,2.55Z"/>
              <path class="cls-6" d="M186.93,57.75c1.03.9,3.31-1.81,3.83-1.27.99,1.04-2.96,1.91-3.51,1.91-.06-.18-.21-.49-.32-.64Z"/>
              <path class="cls-7" d="M190.12,73.39c.2.17-1.2,2.4-1.59,1.91-.14-1.4.01-2.13,1.59-1.91Z"/>
              <path class="cls-6" d="M187.25,59.34c-.11-.34,0-.3,0-.32v.32Z"/>
              <path class="cls-6" d="M206.41,62.21c-.83.09-3.19.67-3.79.28-.31-.2-.93-3.6-.64-4.06.1-.16,2.14-.82,2.52-.55.19.14,2.13,4.07,1.9,4.33Z"/>
              <path class="cls-5" d="M200.33,64.44c-.99.28-2.47.68-3.37.04-.65-.47-1.45-3.19-1.05-3.81.06-.1,1.86-.74,2.19-.54.39.24,2.51,3.91,2.23,4.32Z"/>
              <path class="cls-6" d="M212.79,49.13c.22-.18,3.15,4.14,4.15,3.68.22-.1,2.82-3.11,2.56-.35s-8.64.18-6.71-3.34Z"/>
              <path class="cls-6" d="M205.13,56.47c-1.5-.16-2.87.21-4.15.96-.9-1.17,3.99-3.78,4.15-.96Z"/>
              <path class="cls-6" d="M193.96,58.7c-.7-.63,4.23-3.11,4.14-1.75-.02.39-3.87,2-4.14,1.75Z"/>
              <path class="cls-5" d="M193,63.17c-2.95,1.52-5.63-2.57-1.92-3.51l1.92,3.51Z"/>
            </g>
          </g>
        </g>
        <g>
          <path class="cls-4" d="M185.97,91.58h126.43v57.45H99.77v-57.45h212.63v57.45H99.77v-57.45h86.2ZM307.61,95.09H104.56v49.82h203.05v-49.82Z"/>
          <path class="cls-7" d="M307.61,95.09v49.82H104.56v-49.82h203.05ZM107.43,133.39h8.94c.36-1.99-.71-.9-2.04-1.63-2.49-1.38-.4-5.94.32-7.96l9.69.03c.03,1.97,3.09,6.63.83,7.99-.73.44-3.86.62-.99,1.59,9.23-.78,19.93.98,28.98-.1,6.68-.8,10.22-6.41,8.21-12.82-1.09-3.47-4.2-4.62-7.32-5.76,9.42-2.25,8.09-14.76-1.48-15.76-4.94-.51-10.54.31-15.55-.05l-.53.97c1.64-.09,3.51.15,3.81,2.1l.02,28.07c-.35,3.21-5.73,2.81-6.72,0l-11.14-31.58-.83-.19-10.55,30c-.4.87-1.21,2.63-1.9,3.21-1.04.87-2.14.11-1.76,1.91ZM179.11,98.92c-5.15-.54-11.19.41-16.44,0v.96c2.02-.25,3.51.64,3.8,2.74-.41,8.42.64,17.5.04,25.84-.21,2.85-.65,4.06-3.85,3.66.04.23-.06,1.28,0,1.28h14.05c.06,0-.04-1.05,0-1.28-3.13.47-3.73-1.26-3.83-3.99-.04-1.18,0-2.82-.01-4.13-.03-2.48-.58-9.82,2.82-4.42,1.19,1.88,6.58,13.41,7.62,13.77h15.87c1.34-1.43-.97-1.1-1.84-1.58-2.01-1.1-.87-6.47.28-7.63.78-.8,7.95-.03,9.55-.33.49,1.66,2.79,6.57,1.4,7.92-.5.49-2.34.22-2.48.88-.06.31.36.79.48.79h12.93c.28-1.84-.39-.96-1.45-1.58-.5-.29-1.3-1.37-1.58-1.94l-11.18-31.6-.83.19-10.55,30.25c-2.4,4.93-3.68,3.65-6.08-.22-2.23-3.59-3.75-7.64-6-11.23,6.6-2.07,7.55-12.81,2.21-16.57-1.17-.83-3.52-1.63-4.93-1.78ZM245.68,98.28c-1.2-.13-.77,1.41-1.4,1.95-1.24,1.04-4.02-.89-5.45-1.32-16.92-5.06-23.72,19.91-14.23,30.82,4.05,4.66,11.33,5.88,16.59,2.52.73-.47,4.06-3.67,4.34-4.3.34-.75-.29-1.55-.65-2.22-2.85,3.33-5.44,6.64-10.4,5.6-7.97-1.67-7.61-18.61-5.56-24.43,2.95-8.4,11.24-8.46,14.79-.44.56,1.27.72,3.66,1.96,3.94v-12.13ZM247.27,133.39h9.26c.46-2.04-1.16-.89-2.54-1.77-2.33-1.49.18-5.61.58-7.61.33-.47,8.27-.07,9.57-.15.44,1.81,3.23,6.59,1.13,7.9-1.24.77-2.43-.42-2.04,1.63h13.41c.47-1.86-1.14-1.12-2.14-2.01-.43-.39-1.26-2.15-1.53-2.78l-10.56-30.33c-1.57-.23-.93.44-1.32,1.55-1.1,3.16-2.18,6.33-3.29,9.48-1.41,4.03-6.25,19.58-8.45,21.87-1.12,1.16-2.48.43-2.09,2.22ZM287.5,101.15h5.91c.11,0,1.78.69,2.04.83,1.88,1.01,2.63,2.84,3.15,4.83.16.61-.07,1.53.23,2.01.39.63,1.13.05,1.13-.17v-9.26s-.45-.48-.48-.48h-22.83v.96c3.15-.24,3.92,1.1,4.16,3.98.52,6.09.6,18.87-.05,24.87-.29,2.68-.85,3.71-3.79,3.39.04.23-.06,1.28,0,1.28h23.63c-.02-1.37,1.67-10.47,1.28-10.85-.08-.08-.77-.12-.96.21-.52.91-.66,2.56-1.46,3.91-.64,1.07-2.34,3.01-3.42,3.6-1.6.88-8.53,1.88-8.53-.54v-12.61c4.11-.64,5.87,3.57,5.75,7.02h.96v-16.92c-1.33.15-1.17,2.61-1.51,3.76-.83,2.82-2.03,4.16-5.2,3.9v-13.72ZM130.42,135.62c-.73-.16-.52.1-.73.4-1.01,1.39-.37,3.38-.55,5.03l-.67-4.11c-.46-.17-2.52-.66-2.52.13v4.95c0,.13,1.8.3,1.44-1.28.28,1.84,1.58,1.21,3.03,1.28v-6.38ZM191.72,141.37c-.73-1.23-.13-3.33-.32-4.79-2.47-.43-1.1,2.1-1.27,3.51-2.43.38-1.18-.65-1.92-2.23l1.27.32v-1.6s-2.23,0-2.23,0v4.95c0,.89,1.79.18,2.11.19,1.04.04,1.87-.04,2.68-.03,1.22.02,2.8,1.28,3.17-1.14.32-2.04.39-4.71-2.35-4.29-1.91.29-.9,3.72-1.13,5.11ZM276.32,140.41c.09.27.54,1.4.62,1.47.09.07,2.17.06,2.26,0,.79-.57.14-3.93,1.26-4.34-.47,2.13,1.78,1.57,1.14-.33-.49-1.48-2.26-1.22-2.81.1l-.56,4.07v-4.79c-2.23-.39-1.27.58-2.23,1.91-.05-.51.19-1.44-.3-1.78-.27-.19-1.85-.22-1.93-.13-.18.18-.51,4.93-.32,5.1.61.58,1.04-.62,1.12-.64.71-.23.1.73,1.27.64.93-.07.34-.77.48-1.28ZM107.75,142c3.41.74,3.23-1.59,2.89-4.32-.21-1.72-1.47-.98-2.89-1.1v5.43ZM111.27,136.58v4.95c0,.43,2.61,1.49,2.89-1.26s.25-4.28-2.89-3.69ZM118.93,141.37c.2.07.85,1.12,1.92.64l.32-5.43c-3.42-.32-3.1.05-3.35,3.2-.55.01-.35-2.47-.63-2.88-.24-.35-1-.43-1.12-.31-.24.24.91,4.53-.32,4.79v-4.79c0-.06-1.28-.06-1.28,0v4.95c0,.41,2.31.58,2.65.5.46-.11.04-1.3,1.82-.66h0ZM122.76,136.58v5.43l.96-1.28c.86.32.37,2.03,1.61,1.13.52-.38-.11-5.07-.38-5.24-.39-.24-1.63.06-2.19-.04ZM133.61,141.69c1.06-1.63.67-6.37-2.56-5.11v5.43c.42.01.85-.01,1.28,0,.1,0,.22.01.32,0,.2-.02.51.05.64,0,.18-.07.23-.17.32-.32ZM136.17,142c1.8.09,2.39.11,2.57-1.74.25-2.46.44-4.26-2.57-3.69v5.43ZM142.55,140.09l-.64-.64h-.96s-.64,1.59-.64,1.59c.4-.8-.13-2.48.02-2.99.16-.54,1.23-.34.93-.99l-1.91-.48v4.95c0,.53,1.68.66,2.24.31.3-.19.23-1.03.95-.79.06.65-.27,1.19.64.96.25-.06.24-.05.32-.32.06-.23-.02-.66,0-.96h.32c-.17.83,1.16,1.27,1.6.95.05-.03-.3-.7-.33-1.1-.05-.65.13-3.52,0-3.66-.08-.08-1.83-.24-2.21-.34-.29,1.21-.33,2.28-.32,3.51ZM147.02,136.58h-1.6c.39,1.68.35,3.39.32,5.11,4.28.47,2.79-.75,3.2-3.66.1-.71,1.24-1.16-.17-1.45-2.29-.46-.13,1.9-1.75,1.92v-1.91ZM154.69,136.58l-3.84.16c.5,1.72.3,3.5.32,5.26h3.51v-5.43ZM157.88,136.58h-2.87v4.95c0,.63,1.76.92,1.44-.8-.32,1.72,1.44,1.44,1.44.8v-4.95ZM161.07,138.17c.72-.73-1.6-2.46-2.41-1.29-.3.43-.28,4.68.16,4.99.41.29,2.03.06,2.21-.23.09-.15.14-2.42.05-2.51-.24-.21-1.5.6-1.6-1.27.22-.18,1.37.54,1.59.31ZM163.94,136.58v5.43h2.55v-5.43h-2.55ZM167.14,136.58v5.43c1.81.28,1.22-.42,1.28-1.91.83.42.2,2.81,1.61,1.77.87-.64-.41-4.14-.02-5.29h-2.87ZM172.24,136.58s-1.23-.04-1.27,0c-.2.19,0,4.62-.32,5.43.86.07,2.1-.12,2.21-1.17.06-.61-.53-.33-.61-.64-.16-.64.16-3.46,0-3.62ZM175.44,138.5l1.28-.49c-1.03-3.23-5-.71-2.24,1.76l-1.28.49c1.24,3.43,5.22.54,2.24-1.76ZM177.67,136.58v4.95c0,.66,1.96.5,2.19.11.09-.16.4-3.2.39-3.63-.03-1.95-.99-1.4-2.58-1.44ZM180.55,136.58v5.43c1.77.33.99-1.33,1.33-1.86.07-.12.86-.26,1.23-.54.31-.24.29-1.32.96-.63.2,1.92-.29,3.83,2.35,2.98,1.03-.33.23-1.63.21-2.35-.04-1.01.02-2.02,0-3.03h-6.07ZM196.83,142c1.37,1.37,2.09-4.84.8-5.42-1.5-.67-.37,1.82-.48,1.91-2.29-.05-.36,1.37-.33,1.5.11.49-.1,1.9,0,2.01ZM198.74,142c.94-.17,3.78.46,4.1-.52.21-.63-.16-4.47-.57-4.77-.57-.41-2.71,0-3.53-.14v5.43ZM205.13,138.49c.2.2,1.11-.08,1.27-.48-2.71-3.78-3.75-.16-3.18,2.86.37,1.97,3.59,1.4,2.8-1.2-.2-.66-1.33-1.18-1.53-1.67-.25-.59.54-.59.63-.47.1.12-.09.86,0,.96ZM208.64,141.69c.19-.07.56.2.65-.19.2-.85-.43-2.33.3-3-.05.78.31,1.39.33,2.08.03.85-.98,1.23.95,1.43.17.02.5.04.64,0,.24-.06.25-.05.32-.32.24-.96-.19-2.59,0-3.66.12-.62.71-.81.63-1.44h-5.75c-.17.73.52,1.16.62,1.77.25,1.46-.79,4.09,1.29,3.34ZM215.66,136.58v5.11c.31-.05,1.2.08,1.28,0,.18-.18-.36-4.46-.32-5.11h-.96ZM222.69,139.13c.09-.09.11-2.13-.3-2.42-.3-.21-4.2-.25-4.44-.09-.4.25-.55,4.89-.36,5.06.05.04,1.18.03,1.25-.03.19-.18-.27-1.04.34-.92-.29,1.12,3.16,1.44,3.48,1.24.42-.75.12-1.41.03-2.2-.7.74-1.07,1.26-2.23,1.28-.15-.16.1-3.6.32-3.83.91-.95.28,1.37.45,1.61.25.34,1.34.42,1.46.31ZM223.33,136.58v4.95c0,.66,2.54,1.01,3.05-1.09.69-2.81,0-4.3-3.05-3.85ZM229.08,136.58c-.07-.07-1.85-.07-1.92,0-.18.19-.21,4.38-.64,5.11.81.66,1.57-1.04,1.91-.64.22.26-.6,1.32,1.28.96-.29-.78-.44-5.23-.64-5.43ZM231.63,136.58c-.31.05-1.19-.08-1.28,0-.19.18.25,4.43-.33,5.26l2.88.16c.54-1.46-1.28-.84-1.28-.96v-4.47ZM236.1,138.81c.57.58,1.87-.64.8-1.92-.35-.42-2.27-.44-2.39-.31-.39.41-.41,4.16.3,4.96,1.59,1.8,4.24-2.34,1.3-1.77l-.32,1.28v-3.51c.67-.07.15,1.11.32,1.28ZM239.93,138.82c.83.81,1.84-1.29.65-2.09-3.02-2.04-3.65,5.05-1.11,5.29.86.08,1.77-1.17,1.73-1.77-.03-.37-1.1-.65-1.27-.48-.15.15.31,1.06-.32.96l-.32-3.19c1.17-.27.42,1.07.64,1.28ZM246.47,136.58c-1.08-.33-3.66.24-4.95,0l.32,5.1c.84.07.53.04.63-.48.12-.65.25-3.49.37-3.63.09-.09.93-.11,1.23-.36.2,1.01-.49,4.4.53,4.74.46.15,1.58.17,1.88-.26.42-.6.84-4.86-.01-5.12ZM247.27,136.58v5.43c1.21.19,1.35-.53,1.28-1.59.66,0,.08,1.07.62,1.45.28.2.98.28.98-.03,0-.67-.46-5.07-.64-5.26-.12-.12-1.79.07-2.23,0ZM250.46,136.58v5.43c1.81.28,1.22-.42,1.28-1.91l.32,1.91c1.38.24,1.37-.87,1.28-1.91.69.06-.02,1.75.8,1.91.31.06.79-.36.79-.48v-4.95h-1.92s-.16,1.92-.16,1.92c-.41-1.9-.27-2.15-2.39-1.92ZM257.49,136.58h-2.24c.05.91-.16,4.96.35,5.39.13.11,3.12.05,3.27,0,.61-.2.26-1.1,1-.92.34.08.23,1.11.96.96,1.01-.21.08-5.34-.37-5.44-.25-.06-1.64-.05-1.7.01-.23.23.23,5.85-1.89,4.44-.32-.21-.49-2.89-.37-3.31.13-.45,1.38.33.98-1.13ZM263.87,138.49c.76.87.72-1.74.64-1.92-.47.08-2.46-.11-2.56,0-.15.16-.4,3.9-.32,4.31.3,1.6,4.22,1.94,3.14-1.23-.12-.36-.57-.4-.78-.65-.16-.18-.08-.47-.12-.51-.07-.08-1.02.22-.64-1.28.71.02.53,1.16.64,1.28ZM267.71,136.58h-2.56s.32,5.43.32,5.43h2.56c.44-1.58-1-.69-1.28-.96-.12-.11-.08-3.13-.02-3.34.13-.45,1.38.33.98-1.13ZM272.81,141.53c.33-1.14-.24-3.62,0-4.95-1.92-.36-1.16.72-1.28,2.23-1.26.36-.35-1.96-.64-2.23-1.45-.12-1.54.12-1.62,1.43-.16,2.59,1.47,6.83,1.62,1.44,1.47.3.88,1.33.96,2.55.34.11.88-.21.96-.48ZM285.48,138.74c1.04-1.72-1.87-2.94-2.63-1.86-.3.42-.28,4.68.16,4.99.53.37,2.09.05,2.42-.5.69-1.16-.48-1.78-.5-2.4,0-.19.49-.13.55-.24ZM289.41,137.54c-1.28-1.38-3.02-1.65-3.48.47.73.94-.03,2.89.6,3.52,1.26,1.28,3.44-.37,2.74-1.45-.46-.71-2.5-.26-2.09-2.54,1.05-.33.37.87.81.98.37.09.99-.08,1.42-.02.02-.32-.03-.64,0-.96.34.37.79.27.95,1.12.19,1.02-.87,3.86.8,3.34,1.28-.4-.01-4.31.16-4.46.05-.04.97-.03,1.28-.32v4.79h3.83v-4.79c1.94.5,1.17,2.41,1.28,3.99.14,2.04,1.21-.15,1.29-1.29.06-.94-.36-1.72-.34-2.2,0-.13,1.06-.28.65-1.14-1.29.25-9.53-.33-9.9,0-.05.05.02.71,0,.96ZM299.95,137.38c-.22,1.36.16,3.2,0,4.63.64-.04,3.51.25,3.51-.48,0-.06-.55-.45-.62-.97-.18-1.24.1-2.71,0-3.98-1.03.13-2.66-.52-2.88.8ZM215.34,139.13l-1.91-.32v1.27c.75.05,1.99.19,1.91-.95ZM281.75,139.77c-.06-.06-.7.04-.95,0,.04,1.49-.53,2.21,1.27,1.91-.2-.37-.25-1.85-.32-1.91Z"/>
          <path class="cls-5" d="M107.43,133.39c-.37-1.8.73-1.04,1.76-1.91.69-.58,1.49-2.34,1.9-3.21l10.55-30,.83.19,11.14,31.58c.99,2.81,6.37,3.21,6.72,0l-.02-28.07c-.3-1.94-2.17-2.19-3.81-2.1l.53-.97c5.01.36,10.61-.46,15.55.05,9.56,1,10.9,13.51,1.48,15.76,3.13,1.14,6.23,2.29,7.32,5.76,2.01,6.41-1.53,12.02-8.21,12.82-9.05,1.09-19.75-.67-28.98.1-2.87-.97.27-1.15.99-1.59,2.26-1.36-.81-6.01-.83-7.99l-9.69-.03c-.72,2.02-2.81,6.58-.32,7.96,1.33.73,2.4-.36,2.04,1.63h-8.94ZM147.02,101.15v12.61c0,.58,1.58.5,2.04.45,6.42-.69,5.92-15.56-2.04-13.06ZM123.4,121.58l-3.99-11.81-3.99,11.81h7.98ZM147.02,116.15v13.25c0,3.11,5.31,2.32,6.77-1.21,2.19-5.31.36-13.2-6.77-12.03Z"/>
          <path class="cls-5" d="M179.11,98.92c1.41.15,3.76.95,4.93,1.78,5.34,3.77,4.39,14.5-2.21,16.57,2.25,3.59,3.78,7.64,6,11.23,2.4,3.87,3.67,5.15,6.08.22l10.55-30.25.83-.19,11.18,31.6c.28.57,1.08,1.64,1.58,1.94,1.06.62,1.73-.27,1.45,1.58h-12.93c-.12,0-.54-.48-.48-.79.13-.65,1.98-.39,2.48-.88,1.39-1.36-.91-6.26-1.4-7.92-1.6.3-8.77-.47-9.55.33-1.15,1.17-2.29,6.53-.28,7.63.87.48,3.18.15,1.84,1.59h-15.87c-1.04-.37-6.43-11.9-7.62-13.78-3.4-5.4-2.86,1.94-2.82,4.42.02,1.32-.03,2.96.01,4.13.1,2.73.7,4.46,3.83,3.99-.04.23.06,1.28,0,1.28h-14.05c-.06,0,.04-1.05,0-1.28,3.2.4,3.64-.81,3.85-3.66.6-8.34-.45-17.42-.04-25.84-.3-2.1-1.78-2.99-3.8-2.74v-.96c5.25.41,11.29-.54,16.44,0ZM172.88,115.83c2.02-.05,4.44.4,6.08-1.1,2.43-2.22,2.51-10.5-.17-12.63-.91-.73-5.91-2.06-5.91-.79v14.52ZM206.41,121.58l-3.99-11.49-3.99,11.49h7.98Z"/>
          <path class="cls-5" d="M287.5,101.15v13.72c3.16.26,4.37-1.08,5.2-3.9.34-1.15.18-3.61,1.51-3.76v16.92h-.96c.12-3.45-1.64-7.66-5.75-7.02v12.61c0,2.43,6.93,1.42,8.53.54,1.08-.59,2.78-2.54,3.42-3.6.8-1.34.94-2.99,1.46-3.91.19-.34.88-.3.96-.21.39.38-1.3,9.48-1.28,10.85h-23.63c-.06,0,.04-1.05,0-1.28,2.94.32,3.5-.71,3.79-3.39.65-6,.57-18.78.05-24.87-.25-2.88-1.01-4.22-4.16-3.98v-.96h22.83s.48.44.48.48v9.26c0,.22-.74.8-1.13.17-.3-.48-.07-1.4-.23-2.01-.52-1.99-1.27-3.82-3.15-4.83-.26-.14-1.93-.83-2.04-.83h-5.91Z"/>
          <path class="cls-5" d="M245.68,98.28v12.13c-1.24-.29-1.4-2.68-1.96-3.94-3.55-8.02-11.84-7.96-14.79.44-2.05,5.82-2.41,22.76,5.56,24.43,4.96,1.04,7.54-2.27,10.4-5.6.36.67.99,1.47.65,2.22-.28.63-3.61,3.83-4.34,4.3-5.26,3.35-12.54,2.13-16.59-2.52-9.49-10.91-2.69-35.87,14.23-30.82,1.43.43,4.21,2.36,5.45,1.32.64-.53.2-2.07,1.4-1.95Z"/>
          <path class="cls-6" d="M289.41,137.54c-.02.32.03.64,0,.96-.44-.06-1.05.11-1.42.02-.44-.11.24-1.3-.81-.98-.41,2.28,1.64,1.83,2.09,2.54.7,1.08-1.48,2.73-2.74,1.45-.63-.63.13-2.58-.6-3.52.46-2.13,2.2-1.86,3.48-.47.02-.25-.05-.91,0-.96.37-.33,8.61.25,9.9,0,.41.85-.65,1-.65,1.14-.02.48.4,1.27.34,2.2-.07,1.14-1.14,3.33-1.29,1.29-.11-1.59.66-3.5-1.28-3.99v4.79h-3.83v-4.79c-.31.29-1.23.28-1.28.32-.17.15,1.12,4.06-.16,4.46-1.67.52-.61-2.32-.8-3.34-.16-.86-.61-.75-.95-1.12ZM295.16,141.37c.15-.14-.1-3.51,0-4.15-.79.36-1.84.19-1.12,1.29.19.28,1.04.12.8.78-.13.36-.83.04-.95.17-.35.38.42,2.73,1.27,1.91ZM287.82,139.77h-.64s.32.95.32.95h.31s0-.95,0-.95Z"/>
          <path class="cls-6" d="M118.93,141.37c-1.78-.64-1.36.55-1.82.66-.34.08-2.65-.09-2.65-.5v-4.95c0-.06,1.28-.06,1.28,0v4.79c1.23-.26.08-4.55.32-4.79.12-.12.89-.05,1.12.31.28.42.08,2.9.63,2.88.26-3.14-.06-3.52,3.35-3.2l-.32,5.43c-1.07.48-1.72-.57-1.92-.64h0Z"/>
          <path class="cls-6" d="M180.55,136.58h6.07c.02,1-.04,2.02,0,3.03.03.72.82,2.02-.21,2.35-2.63.84-2.15-1.06-2.35-2.98-.67-.7-.65.39-.96.63-.37.28-1.15.42-1.23.54-.34.54.44,2.19-1.33,1.86v-5.43ZM185.34,141.37c1.03-.58.88-3.03.15-3.83l-.15,3.83Z"/>
          <path class="cls-6" d="M257.49,136.58c.4,1.46-.85.68-.98,1.13-.12.42.05,3.1.37,3.31,2.12,1.41,1.66-4.2,1.89-4.44.06-.06,1.46-.07,1.7-.01.45.1,1.37,5.23.37,5.44-.72.15-.61-.87-.96-.96-.74-.18-.39.72-1,.92-.16.05-3.15.11-3.27,0-.51-.43-.31-4.48-.35-5.39h2.24Z"/>
          <path class="cls-6" d="M250.46,136.58c2.12-.24,1.99.02,2.39,1.92l.16-1.92h1.92v4.95c0,.12-.48.54-.79.48-.82-.17-.11-1.85-.8-1.91.09,1.04.1,2.15-1.28,1.91l-.32-1.91c-.06,1.5.53,2.2-1.28,1.91v-5.43Z"/>
          <path class="cls-6" d="M130.42,135.62v6.38c-1.46-.07-2.75.56-3.03-1.28.37,1.58-1.44,1.41-1.44,1.28v-4.95c0-.79,2.06-.29,2.52-.13l.67,4.11c.17-1.65-.47-3.64.55-5.03.22-.3,0-.56.73-.4Z"/>
          <path class="cls-6" d="M222.69,139.13c-.12.12-1.21.04-1.46-.31-.18-.24.46-2.56-.45-1.61-.22.23-.47,3.67-.32,3.83,1.16-.01,1.53-.53,2.23-1.28.09.79.39,1.45-.03,2.2-.32.2-3.77-.13-3.48-1.24-.61-.11-.16.74-.34.92-.06.06-1.2.08-1.25.03-.19-.18-.04-4.81.36-5.06.24-.15,4.14-.12,4.44.09.41.28.39,2.32.3,2.42Z"/>
          <path class="cls-6" d="M246.47,136.58c.86.26.43,4.52.01,5.12-.3.43-1.43.42-1.88.26-1.02-.34-.32-3.73-.53-4.74-.3.25-1.14.27-1.23.36-.12.14-.25,2.98-.37,3.63-.1.52.21.55-.63.48l-.32-5.1c1.29.24,3.87-.33,4.95,0Z"/>
          <path class="cls-6" d="M276.01,138.49c.97-1.34,0-2.31,2.23-1.91v4.79l.56-4.07c.56-1.32,2.32-1.58,2.81-.1.64,1.91-1.61,2.47-1.14.33-1.12.41-.47,3.76-1.26,4.34-.09.07-2.17.07-2.26,0-.08-.06-.53-1.2-.62-1.47-.31-.91-.23-1.01-.32-1.91Z"/>
          <path class="cls-6" d="M198.74,142v-5.43c.83.15,2.96-.28,3.53.14.41.3.78,4.14.57,4.77-.33.99-3.16.35-4.1.52ZM200.66,137.54c-.75-.05-.56-.11-.64.47-.12.94.09,2.07,0,3.04,1.78-.09.25-2.3.64-3.51Z"/>
          <path class="cls-5" d="M191.72,141.37c.24-1.38-.77-4.82,1.13-5.11,2.75-.42,2.67,2.25,2.35,4.29-.38,2.42-1.95,1.15-3.17,1.14-.08-.12-.26-.21-.32-.32Z"/>
          <path class="cls-6" d="M192.04,141.69c-.81-.01-1.64.06-2.68.03-.32-.01-2.11.7-2.11-.19v-4.95h2.24s0,1.6,0,1.6l-1.27-.32c.73,1.58-.51,2.61,1.92,2.23.17-1.42-1.19-3.95,1.27-3.51.19,1.46-.41,3.55.32,4.79.06.11.24.2.32.32Z"/>
          <path class="cls-6" d="M208.64,141.69c-2.08.75-1.04-1.88-1.29-3.34-.1-.61-.79-1.04-.62-1.77h5.75c.08.63-.51.82-.63,1.44-.2,1.07.23,2.71,0,3.66l-.32.32c-.14.04-.46.02-.64,0-.65-1.47-.18-3.22-.32-4.79-.27.05-.9.8-.95.96l-.95-.96v4.47Z"/>
          <path class="cls-6" d="M223.33,136.58c3.06-.45,3.74,1.04,3.05,3.85-.51,2.1-3.05,1.76-3.05,1.09v-4.95Z"/>
          <path class="cls-6" d="M299.95,137.38c.22-1.32,1.85-.67,2.88-.8.11,1.27-.17,2.74,0,3.98.07.52.62.91.62.97,0,.73-2.87.43-3.51.48.16-1.43-.22-3.26,0-4.63Z"/>
          <path class="cls-6" d="M147.02,136.58v1.91c1.63-.01-.54-2.38,1.75-1.92,1.41.28.27.73.17,1.45-.41,2.91,1.07,4.14-3.2,3.66.03-1.72.08-3.43-.32-5.11h1.6Z"/>
          <path class="cls-6" d="M167.14,136.58h2.87c-.4,1.15.89,4.64.02,5.28-1.41,1.04-.78-1.35-1.61-1.77-.06,1.5.53,2.2-1.28,1.91v-5.43Z"/>
          <path class="cls-6" d="M107.75,142v-5.43c1.42.13,2.68-.62,2.89,1.1.34,2.74.52,5.06-2.89,4.32Z"/>
          <path class="cls-6" d="M157.88,136.58v4.95c0,.63-1.76.92-1.44-.8.32,1.72-1.44,1.44-1.44.8v-4.95h2.87Z"/>
          <path class="cls-6" d="M111.27,136.58c3.14-.59,3.17.93,2.89,3.69s-2.89,1.69-2.89,1.26v-4.95Z"/>
          <path class="cls-6" d="M272.81,141.53c-.08.27-.61.58-.96.48-.08-1.23.52-2.25-.96-2.55-.16,5.38-1.78,1.15-1.62-1.44.08-1.32.17-1.55,1.62-1.43.29.27-.62,2.6.64,2.23.12-1.51-.65-2.59,1.28-2.23-.24,1.33.33,3.8,0,4.95Z"/>
          <path class="cls-6" d="M154.69,136.58v5.43h-3.51c-.03-1.76.17-3.54-.32-5.26l3.84-.16ZM153.73,137.22c-.98-.22-1.51.49-1.29,1.41.06.24.58.17.61.22.52.72-.78.65-.91,1.1-.2.66.48,1.32,1.11,1.43.73.12.44-.32.48-.8.09-1.1-.06-2.25,0-3.36Z"/>
          <path class="cls-6" d="M263.87,138.49s-.04.33.12.51c.22.24.66.29.78.65,1.08,3.17-2.84,2.83-3.14,1.23-.08-.41.17-4.15.32-4.31.1-.11,2.09.08,2.56,0,.08.18.12,2.79-.64,1.92-.1-.12.08-1.26-.64-1.28-.39,1.5.57,1.2.64,1.28Z"/>
          <path class="cls-6" d="M285.48,138.74c-.06.1-.55.04-.55.24.02.61,1.19,1.24.5,2.4-.33.55-1.89.87-2.42.5-.43-.31-.46-4.57-.16-4.99.76-1.08,3.67.14,2.63,1.86Z"/>
          <rect class="cls-6" x="163.94" y="136.58" width="2.55" height="5.43"/>
          <path class="cls-5" d="M133.61,141.69l-.32.32c-.13.05-.43-.02-.64,0l-.16-4.47-.16,4.47c-.43,0-.85.01-1.28,0v-5.43c3.22-1.26,3.61,3.48,2.56,5.11Z"/>
          <path class="cls-6" d="M205.13,138.49c-.1-.09.1-.83,0-.96-.09-.12-.88-.12-.63.47.2.48,1.33,1,1.53,1.67.79,2.6-2.43,3.17-2.8,1.2-.57-3.02.47-6.64,3.18-2.86-.16.4-1.06.68-1.27.48Z"/>
          <path class="cls-6" d="M136.17,142v-5.43c3.01-.57,2.82,1.23,2.57,3.69-.18,1.85-.77,1.82-2.57,1.74Z"/>
          <path class="cls-6" d="M122.76,136.58c.56.11,1.8-.19,2.19.04.27.16.9,4.86.38,5.24-1.24.9-.74-.81-1.61-1.13l-.96,1.28v-5.43Z"/>
          <path class="cls-6" d="M175.44,138.5c2.99,2.3-1,5.19-2.24,1.76l1.28-.49c-2.77-2.47,1.2-4.99,2.24-1.76l-1.28.49Z"/>
          <path class="cls-6" d="M247.27,136.58c.44.08,2.12-.12,2.23,0,.18.19.64,4.59.64,5.26,0,.31-.69.23-.98.03-.54-.39.04-1.46-.62-1.45.07,1.06-.07,1.79-1.28,1.59v-5.43Z"/>
          <path class="cls-6" d="M177.67,136.58c1.6.04,2.55-.52,2.58,1.44,0,.43-.3,3.47-.39,3.63-.23.38-2.19.54-2.19-.11v-4.95Z"/>
          <path class="cls-5" d="M276.01,138.49c.09.9.01,1,.32,1.91-.14.5.45,1.21-.48,1.28-1.17.08-.57-.87-1.27-.64-.08.03-.51,1.23-1.12.64-.18-.18.14-4.92.32-5.1.08-.08,1.66-.05,1.93.13.49.34.25,1.27.3,1.78Z"/>
          <path class="cls-6" d="M236.1,138.81c-.17-.17.35-1.35-.32-1.28v3.51s.32-1.28.32-1.28c2.95-.57.29,3.58-1.3,1.77-.7-.8-.69-4.55-.3-4.96.12-.12,2.04-.11,2.39.31,1.07,1.28-.22,2.5-.8,1.92Z"/>
          <path class="cls-6" d="M229.08,136.58c.19.2.35,4.65.64,5.43-1.88.36-1.06-.7-1.28-.96-.34-.41-1.11,1.3-1.91.64.43-.72.46-4.92.64-5.11.07-.07,1.85-.07,1.92,0Z"/>
          <path class="cls-6" d="M239.93,138.82c-.22-.21.53-1.54-.64-1.28l.32,3.19c.63.1.17-.81.32-.96.16-.17,1.24.11,1.27.48.04.6-.87,1.86-1.73,1.77-2.53-.25-1.9-7.33,1.11-5.29,1.19.8.18,2.89-.65,2.09Z"/>
          <path class="cls-6" d="M161.07,138.17c-.22.22-1.38-.49-1.59-.31.1,1.87,1.36,1.06,1.6,1.27.09.08.04,2.36-.05,2.51-.18.29-1.8.52-2.21.23-.43-.31-.46-4.56-.16-4.99.82-1.17,3.13.57,2.41,1.29Z"/>
          <path class="cls-5" d="M142.55,140.09c0-1.23.03-2.3.32-3.51.39.1,2.14.26,2.21.34.14.14-.04,3.02,0,3.66.03.4.37,1.07.33,1.1-.44.32-1.77-.13-1.6-.95.57-.36.36-3.51.16-3.51-.64,1.07-.4,2.35-.48,3.51-.02.3.06.73,0,.96l-.32.32c-.91.23-.58-.31-.64-.96-.03-.31,0-.64,0-.96Z"/>
          <path class="cls-6" d="M142.55,141.05c-.72-.24-.66.6-.95.79-.56.36-2.24.22-2.24-.31v-4.95l1.91.48c.29.65-.77.45-.93.99s.38,2.2-.02,2.99l.64-1.6h.96s.64.64.64.64c0,.32-.03.65,0,.96Z"/>
          <path class="cls-6" d="M267.71,136.58c.4,1.46-.85.68-.98,1.13-.06.21-.1,3.22.02,3.34.28.27,1.73-.63,1.28.95h-2.56s-.32-5.42-.32-5.42h2.56Z"/>
          <path class="cls-6" d="M231.63,136.58v4.47c0,.11,1.82-.5,1.28.96l-2.88-.16c.58-.84.13-5.08.33-5.26.08-.08.97.05,1.28,0Z"/>
          <path class="cls-6" d="M172.24,136.58c.16.16-.15,2.98,0,3.62.08.31.67.04.61.64-.11,1.04-1.34,1.24-2.21,1.17.32-.81.12-5.24.32-5.43.05-.04,1.23-.04,1.27,0Z"/>
          <path class="cls-6" d="M196.83,142c-.11-.11.1-1.53,0-2.01-.03-.13-1.97-1.55.33-1.5.1-.09-1.02-2.59.48-1.91,1.29.58.57,6.79-.8,5.42Z"/>
          <path class="cls-6" d="M215.66,136.58h.96c-.04.65.5,4.93.32,5.11-.08.08-.97-.05-1.28,0v-5.11Z"/>
          <path class="cls-4" d="M210.88,142c-1.92-.2-.92-.57-.95-1.43-.02-.69-.38-1.3-.33-2.08,0-.11-.03-.24,0-.32.05-.16.69-.91.95-.96.14,1.56-.33,3.32.32,4.79Z"/>
          <path class="cls-8" d="M209.6,138.17c-.03.08,0,.21,0,.32-.73.67-.1,2.15-.3,3-.09.39-.47.12-.65.19v-4.47s.96.96.96.96Z"/>
          <path class="cls-5" d="M281.75,139.77c.07.07.12,1.55.32,1.91-1.8.29-1.23-.42-1.27-1.91.26.04.89-.06.95,0Z"/>
          <path class="cls-6" d="M215.34,139.13c.08,1.14-1.16,1-1.91.95v-1.27s1.91.32,1.91.32Z"/>
          <path class="cls-4" d="M143.83,140.73h-.32c.08-1.16-.16-2.45.48-3.51.2,0,.41,3.16-.16,3.51Z"/>
          <path class="cls-4" d="M132.66,142c-.1.01-.22,0-.32,0l.16-4.47.16,4.47Z"/>
          <path class="cls-4" d="M133.29,142l.32-.32c-.09.15-.14.25-.32.32Z"/>
          <path class="cls-4" d="M211.51,142l.32-.32c-.07.27-.07.26-.32.32Z"/>
          <path class="cls-6" d="M143.19,142l.32-.32c-.08.27-.07.26-.32.32Z"/>
          <path class="cls-7" d="M147.02,116.15c7.13-1.17,8.95,6.72,6.77,12.03-1.46,3.54-6.77,4.32-6.77,1.21v-13.25Z"/>
          <path class="cls-7" d="M147.02,101.15c7.96-2.5,8.46,12.37,2.04,13.06-.46.05-2.04.13-2.04-.45v-12.61Z"/>
          <polygon class="cls-7" points="123.4 121.58 115.42 121.58 119.41 109.77 123.4 121.58"/>
          <path class="cls-7" d="M172.88,115.83v-14.52c0-1.27,5,.07,5.91.79,2.68,2.13,2.6,10.41.17,12.63-1.64,1.5-4.06,1.05-6.08,1.1Z"/>
          <polygon class="cls-7" points="206.41 121.58 198.42 121.58 202.42 110.09 206.41 121.58"/>
          <path class="cls-7" d="M295.16,141.37c-.85.81-1.62-1.53-1.27-1.91.12-.13.82.2.95-.17.23-.66-.62-.5-.8-.78-.73-1.1.33-.93,1.12-1.29-.1.64.15,4.01,0,4.15Z"/>
          <path class="cls-7" d="M185.34,141.37l.15-3.83c.72.8.88,3.25-.15,3.83Z"/>
          <path class="cls-7" d="M200.66,137.54c-.39,1.21,1.15,3.42-.64,3.51.08-.97-.12-2.09,0-3.04.07-.58-.11-.52.64-.47Z"/>
          <path class="cls-7" d="M153.73,137.22c-.06,1.1.09,2.26,0,3.36-.04.48.25.92-.48.8-.63-.1-1.31-.76-1.11-1.43.13-.45,1.43-.38.91-1.1-.04-.05-.55.02-.61-.22-.22-.92.31-1.63,1.29-1.41Z"/>
          <polygon class="cls-7" points="287.82 139.77 287.82 140.73 287.5 140.73 287.18 139.77 287.82 139.77"/>
          <g>
            <path class="cls-5" d="M247.27,133.39c-.39-1.79.97-1.06,2.09-2.22,2.2-2.29,7.04-17.85,8.45-21.87,1.1-3.16,2.18-6.33,3.29-9.48.39-1.11-.25-1.78,1.32-1.55l10.56,30.33c.27.63,1.1,2.39,1.53,2.78,1,.89,2.61.15,2.14,2.01h-13.41c-.38-2.04.81-.85,2.04-1.63,2.1-1.32-.69-6.09-1.13-7.9-1.3.08-9.24-.33-9.57.15-.4,2-2.92,6.12-.58,7.61,1.37.88,2.99-.27,2.54,1.77h-9.26ZM255.57,121.58h7.66l-3.67-11.49-3.99,11.49Z"/>
            <polygon class="cls-7" points="255.57 121.58 259.56 110.09 263.23 121.58 255.57 121.58"/>
          </g>
        </g>
        <g>
          <path class="cls-4" d="M121.48,152.22c2.44.01,4.9,0,7.34,0l-.96,9.74c-.71,17.46,7.06,39.56,22.37,49.12,14.12,8.81,32.61,10.94,47.55,18.85,2.94,1.56,5.55,3.66,8.46,5.26,12.49-9.43,28.13-12.38,42.47-17.85,15.46-5.9,24.26-12.26,30.86-27.88,5.02-11.88,6.19-24.51,4.1-37.24,2.44,0,4.9,0,7.34,0,3.87,22.54-3.23,50.18-23.21,63.13-19.03,12.34-44.8,12.33-61.28,28.75-2.77-1.85-5.13-4.2-7.93-6.04-17.3-11.35-40.85-12.23-57.28-25.08-14.7-11.49-21.53-33.16-20.78-51.35l.95-9.42Z"/>
          <g>
            <path class="cls-8" d="M196.22,213.52c-1.01,3.1-3.89.74-5.3.74-.58,0-4.1,1.89-5.45,2.08-8.16,1.16-9.53-9.98-12.1-15.3-4.86-3.22-11.1-5.99-15.6-9.62-.78-.63-1.4-1.79-1.5-1.86-.2-.15-2.31,1.92-4.62.32-5.04-3.48-5.07-12.9-4.64-18.36.16-2.07,1.65-5.92,3.19-7.34,1-.92,2.69-.83,4.07-1.68,2.41-1.48,1.37-3.41,3.18-5.12,3.32-3.13,8.84-5.21,13.35-5.48,7.22-.43,25.94-.56,32.21,1.98,3.88,1.57,9.9,7.28,13.14,7.61,1.34.14,2.81-.1,4.16,0,9.31.61,18.78,1.97,27.67,4.89,3.42,1.12,10.32,3.56,11.03,7.48.48,2.63,1.24,5.19,1.64,7.62.9,5.53.5,11.86,1.29,17.5-.26.89-.71,1.83-1.26,2.57-.64.88-4.99,5.55-5.76,6.05-2.64,1.73-10.33,3.29-13.79,4.41-8.77,2.84-15.82,5.56-25.31,6.29-5.77.45-8.68-1.74-13.96-3.27-1.87-.54-3.82-.75-5.64-1.49ZM169.69,153.5l-2.23.15c1.55,2.83.18,6.98,2.55,9.42-1.31-3.23-1.07-6.25-.32-9.57ZM167.46,161.48c.5-1.2-.88-6.34-1.8-6.66-1.21-.43-7.6,3.17-7.76,3.66-.14.44-.04.64.3.93.59.49,6.3,1.02,7.02.65.56-.28.39-1.11.95-1.12.43,2.23-.86,1.44-1.91,2.55h3.19ZM181.66,155.09c-2.78-.32-6.65,0-9.58,0-.19,0-.45.47-.46.77-.04.65.43,3.4.71,4.1.25.64,1.74,2.5,2.29,2.81,1,.57,4.99.11,6.36-.06.78-.09,4.89-.6,4.99-1.08-1.65-2.61-3.37-5.9-7.02-5.26-.07-.56.72-.3,1.11-.32,1.01-.04,2.03.03,3.03,0,.32-.69-1.15-.92-1.44-.96ZM193.64,162.11c-1.11.02-2.12-.52-3.51.32,0,.55,1.4.35,1.77.33.83-.05,1.74,0,2.38-.65,3.17-.12,6.25-.37,9.43-.33.7,0,2.79.81,2.65-.73s-5.13-3.41-6.5-3.41h-7.18l.96,4.47ZM240.25,204.24c-1.84.29-5.33.64-7.18.66-1.6.02-6.07-1.97-5.61.77.2,1.17,1.83.85,2.73.8,1.61-.1,4.5-1.3,5.59,0-3.02.22-6.09.35-9.1.64-2.72.27-18.51,2.49-19.64,1.27-.6-.65,1.54-1.1,1.85-1.18,1.34-.35,2.5-.54,3.9-.41-3.12-3.46-2.36-8.84,2.74-9.54,6.48-.89,7.39,5.21,4.28,9.55h6.86c.11,0,.47-.42.8-.32-2.26-2.18,1.74-7.09,3.76-7.89,6.64-1.44,13.65-1.58,20.27-3.03,1.17-.26,1.53-.72,2.31-1.52,2.46-2.53,4.07-5.92,5.55-9.08l-1.24-6.88c-.52.12-.36,1.27-.53,1.85-.12.41-.24.93-.74,1.02-.02-2.1,1.28-7.59,0-9.1-1.37-1.61-8.31-4.08-10.55-4.77-3.17-.98-8.43-2.45-11.65-2.72-.35-.03-1.49-.26-1.43.31,4.11.8,8.18,3.43,11.78,5.62,1.48.9,4.44,3.56,5.96,3.62,1.6.06,3.44-.9,5.09.66l-4.48.96h-6.06s1.12-.64,1.12-.64c-1.04-2.56-3.93-4.68-6.29-6-8.45-4.72-19.17-5.92-28.67-6.12l-6.23.95c9.13.21,18.35,1.75,25.86,7.02-9.76-2.45-20.7-6.51-30.8-7.03-4.25-.22-7.79.3-11.86.61-2.7.2-5.4.41-8.1.36-.18-.99.39-.54.96-.64,1.15-.2,2.37-.24,3.52-.48,0-.26-2.34-.2-2.74-.17s-.73.33-.77.33c-3.67.16-7.77-.33-11.35-.01-3.9.35-7.1,4.38-7.97,8-.98-1.97,1.24-3.57,1.62-5.1.09-.37.27-.55-.17-.82-.18-.11-3.72-.46-4.31-.48-1.68-.05-5.44.63-6.55.16-.49-.21-.68-1.1-1.72-.76-.3.1-2.29,3.66-2.12,3.8,1.81-.38,3.31,1.57,3.51,3.19-1.39-1.68-4.36-4.92-4.46-.64.62-.35.85-.82,1.68-.59,1.9.52,4.79,8.72,5.02,10.8.48.07.55-1.13.52-1.39-.07-.78-.37-2.58-.53-3.4,1.23-1.26.32-2.95.31-4.3,0-.64.04-.51.65-.49-.07,1.04.33,1.98.34,3.02,0,.94-.58,3.84-.3,4.28.06.08,1.26.36,1.72.68.81.56,1.28,1.7,2.06,2.4,3.92,3.5,8.6,6.15,12.46,9.73-.79-2.57-.83-4.9-2.87-6.86.24-.41,1.44,0,1.6-.16.12-.12.05-2.9-.02-3.33-.55-3.17-7.68-6.17-10.52-7.2l.64-.32c2.23.54,7.87,1.14,9.56,2.09,1.17.66.37,1.69.34,2.7.92.18.51-.26.72-.7,1.57-3.27,3.54-4.52,7.2-3.23,2.28.81,4.93,4.94,5.81,7.12,2.29,5.68,4.03,23.35.7,28.62-.94,1.49-1.49,1.52-3.25,1.38.7-3.31-2.53-6.49-1.84-9.66.12-.55,1.96-3.18.1-2.77-.88.19-3.95,2.87-3.94,3.6.02,1.33,2.98,7.06,4.07,8.06.67.61,1.17.51,1.61.78.31.19.84.6.96.95-1.91.48-2.62-1.07-4.15-1.59,3.87,6.36,9.34,3.68,9.89-3.04-.82-.68-.72,1.12-1.02,1.85-.16.39-1.78,4.15-2.48,3.42.57-1.84,1.73-3.42,2.15-5.35,1.83-8.3.71-18.74-2.47-26.57-.92-2.25-2.79-6.3-4.81-7.8-2.95-2.19-4.52-.45-7.17-.82-.32-.04-.69.09-.47-.48.86-2.2,5.45-4.84,7.78-4.62,5.83.55,10.1,11.72,12.65,16.1-1.3.18-2.68.78-3.92.09l-3.11-3.43c1.02,2.31,2,4.65,2.87,7.02.75,2.02,1.96,4.82,2.55,6.7.56,1.77.41,3.88.97,5.57.34,1.01,1.49,1.9,1.59,2.59.15,1.07-.91,2.08-.5,3,.22.49,4.24,2.92,4.94,3.06,1.52.3,3.3.25,4.87.55s6.04,1.78,7.12,1.78c.92,0,2.9-.81,2.89-1.89,9.8-.68,20.2-.96,29.83-2.85,1.71-.34,3.44-.79,5.11-1.28,7.13-2.07,10.54-5.57,11.81-13.09.25-1.46.49-2.9.32-4.47-1.02.65-.53,2.48-.64,3.51-.08.86-.26,1.69-.32,2.55l-.63-.95c.16,2-1.7,7.38-4.27,6.71-.25-.07-.18-.68-.36-.65-1.04.17-1.99,2.45-3.06,3.01-.97.5-4.11,1.14-5.4,1.46-1.49.37-3.71,1.06-5.11,1.28ZM190.76,181.9c.4-.29-4.58-7.8-5.12-8.45-1.3-1.55-5.16-4.94-4.1-.69,2.24,2.19,3.86,5.53,6.03,7.7.9.9,1.82,1.67,3.19,1.44ZM152.13,177.11v6.54c0,.13-.75,1.18-.95,1.29-1.65.89-1.5-2.44-1.69-3.43-.06-.32-.46-.65-.55-1.08-.19-.97.5-.72.91-1.28,1-1.36-.57-1.21-.62-1.61-.05-.32.5-1.26.35-1.39-.11-.1-.91.21-.98-.18-.34-1.81-.09-4.68,1.93-2.38-.78-3.55-2.28-2.05-2.55.8-.29,3.05.08,9.51,2.24,11.8,2.44,2.58,2.06-3.65,2.55-5.1l-.64-3.98ZM177.99,190.2c-.98-2.1,1.05-5.14-.84-6.66-1.07-.85-2.23-1.06-2.6.5-.15.66-.18,6.43,0,6.72.07.11,1.8,1.45,2.05,1.62,1.69,1.1,3.42.44,2.66,3.4-.12.47.23.57-.63.48.51-2.64-2.63-2.65-4.15-3.83-.07,2.79.53,5.56.96,8.3,1.07-.84,1.89-3.17,3.02-3.86.87-.53,1.62,1.07,1.71-1.74,0-.29-.34-.72-.26-.78,1.01-.79,2.25,1.54,2.85,2.09.42.38,1.02.42,1.43.8,1.3,1.2,3.3,4.94-.14,1.89-.18,2.52.41,5.05,1.43,7.34.68,0,.46-4.53.48-5.27.02-.62.33-1.24.34-1.92.03-1.88-1.2-4.09-.67-6.22l-1.91.32c.19-1.23-.4-3.73.3-4.66.22-.29.9-.32.99-.67.29-1.15-1.81-5.5-2.51-6.69-3.92-6.63-7.7-2.99-8.99,2.77.71-.06.8-1.42,1-1.55.29-.17,1.11.01,1.63-.12.99-.26,1.84-.92,3.09-.55.12,2.67.37,5.77-.62,8.28-.2.04-.48-.05-.64,0ZM256.85,195.63c-1.49-.04-1.93,1.63-1.91,2.87.97-.63,1.99-1.61,1.91-2.87ZM213.11,204.88c1.04,1.41,2.11,2.08,3.91,1.84.27-.03.97-.15.88-.56-1.66.16-3.17-.24-4.47-1.28,1.11-.2,1.76.61,3.21.17,3.84-1.14,3.66-6.09-.5-5.95-.91.03-3.41.85-3.75,1.71-.64,1.63-.24,2.76.72,4.07ZM248.5,205.66l-3.23.8.11.44,3.23-.8-.11-.44ZM245.04,206.8l-1.91.32v.31s1.91-.32,1.91-.32v-.31ZM242.64,207.43v.32c.21-.11.21-.21,0-.32ZM235.14,210.31h6.39c.26-1.17-1.42-.46-2.09-.65l-4.29.65ZM207.36,210.63l-4.15-.32,2.4.63,1.75-.31ZM208.64,210.95c-1.33-.16-1.33.47,0,.31v-.31ZM234.34,211.58h-10.7c.42,1.03,1.78.49,2.64.71,1.04.27,1.82.91,2.94.91,1.72,0,3.86-.79,5.59-.99.09-.09-.36-.6-.48-.63ZM225.24,213.18l-7.5.32-3.35.63,8.14-.32,2.71-.63Z"/>
            <path class="cls-1" d="M181.5,164.03c-.56.1-1.13-.36-.96.64,2.7.06,5.4-.15,8.1-.36,4.07-.31,7.61-.83,11.86-.61,10.1.52,21.04,4.58,30.8,7.03-7.51-5.27-16.73-6.81-25.86-7.02l6.23-.95c9.5.2,20.22,1.4,28.67,6.12,2.36,1.32,5.25,3.44,6.29,6l-1.12.64h6.06s4.48-.96,4.48-.96c-1.65-1.56-3.48-.59-5.09-.66-1.51-.06-4.48-2.73-5.96-3.62-3.61-2.18-7.67-4.81-11.78-5.62-.06-.57,1.08-.34,1.43-.31,3.22.27,8.47,1.74,11.65,2.72,2.24.69,9.19,3.16,10.55,4.77,1.28,1.51-.03,7,0,9.1.49-.08.61-.61.74-1.02.17-.58.01-1.73.53-1.85l1.24,6.88c-1.48,3.16-3.08,6.56-5.55,9.08-.78.8-1.15,1.26-2.31,1.52-6.62,1.45-13.64,1.59-20.27,3.03-2.02.8-6.01,5.72-3.76,7.89-.33-.1-.69.32-.8.32h-6.86c3.11-4.33,2.2-10.44-4.28-9.55-5.1.7-5.86,6.08-2.74,9.54-1.4-.12-2.56.06-3.9.41-.31.08-2.45.53-1.85,1.18,1.13,1.22,16.92-1,19.64-1.27,3.01-.29,6.08-.43,9.1-.64-1.09-1.3-3.98-.1-5.59,0-.89.05-2.53.37-2.73-.8-.46-2.74,4-.75,5.61-.77,1.84-.02,5.34-.37,7.18-.66,1.23.15.82,1.77,2.55,1.91-9.64,1.9-20.03,2.17-29.83,2.85,0,1.09-1.97,1.9-2.89,1.89-1.08,0-5.47-1.47-7.12-1.78s-3.36-.25-4.87-.55c-.7-.14-4.72-2.57-4.94-3.06-.41-.92.65-1.94.5-3-.1-.68-1.25-1.57-1.59-2.59-.56-1.69-.42-3.8-.97-5.57l.32-.64c.31,1.32,1.03,5.11,2.05,5.77,3.39,2.16-.29-2.52-.52-2.99-1.11-2.23-1.72-6.48.9-7.84,2.41-1.26,5.29,1.69,7.78,1.39-3.19-2.19-5.81-4.53-9.99-3.6-.95.21-1.4,1.17-1.51,1.21-.33.13-1.16-.09-1.6,0-.88-2.37-1.85-4.71-2.87-7.02l3.11,3.43c1.24.69,2.62.09,3.92-.09-2.55-4.38-6.82-15.55-12.65-16.1-2.33-.22-6.92,2.42-7.78,4.62-.22.56.15.43.47.48,2.65.37,4.22-1.37,7.17.82,2.02,1.5,3.89,5.55,4.81,7.8l-.32.32c-.88-2.18-3.52-6.31-5.81-7.12-3.66-1.29-5.63-.04-7.2,3.23-.21.44.2.88-.72.7.03-1.01.83-2.04-.34-2.7-1.69-.95-7.33-1.55-9.56-2.09-1.4-.34-2.97-1.18-4.47-1.27.77,1.22,2.61,1.15,3.83,1.59,2.84,1.03,9.96,4.03,10.52,7.2.08.43.14,3.22.02,3.33-.16.16-1.36-.25-1.6.16,2.04,1.96,2.08,4.29,2.87,6.86-3.86-3.58-8.54-6.23-12.46-9.73-.79-.7-1.25-1.85-2.06-2.4-.45-.31-1.66-.59-1.72-.68-.28-.43.3-3.34.3-4.28,0-1.04-.41-1.98-.34-3.02-.6-.03-.65-.15-.65.49.01,1.35.92,3.05-.31,4.3-.12-.62-.2-1.05-.4-1.68-.12-.37-.43-1.46-.88-1.51-.19,1.25.17,2.48,1.27,3.19.16.82.46,2.61.53,3.4.02.26-.04,1.46-.52,1.39-.24-2.08-3.12-10.28-5.02-10.8-.83-.23-1.06.24-1.68.59.11-4.28,3.07-1.04,4.46.64-.19-1.62-1.7-3.57-3.51-3.19-.17-.14,1.82-3.7,2.12-3.8,1.04-.34,1.22.55,1.72.76,1.11.47,4.87-.21,6.55-.16.59.02,4.12.37,4.31.48.44.27.27.45.17.82-.38,1.53-2.6,3.13-1.62,5.1.87-3.62,4.07-7.65,7.97-8,3.58-.32,7.68.18,11.35.01v.32ZM182.94,165.3c-2.17-.22-4.65.16-6.86,0l12.76,3.68,11.16,5.94c-.68,2.29.35,4.59,1.31,6.66.6.07.26-.67.22-1.02-.12-1.27-.94-5.68,1.21-5.68h27.94c.05-.8.08-.55-.48-.63-6.03-.89-12.58-.38-18.75-1.37-9.21-1.49-20.14-6.72-28.5-7.57ZM245.68,186.05c1.59-.04,4.39.03,5.84-.38,2.26-.65,5.01-7.92,4.33-9.94-.54-1.61-4.86,1.41-6.17,1.08l-45.29-.03c-1.9,1.42.21,6.76,1.78,7.43,1.03.44,7.54.38,9.03.25.68-.06,1.18-.31,1.75-.65,0,.32.17.68.32.96-2.24.96-1.65.33-3.66.31-3.52-.04-6.68.29-10.07-.94-.31,1.72,4.84,5.74,5.9,5.74h24.9s.64-.46.32-.64c-.43-.6-3.79-.26-4.79-.32-4.44-.26-11.01-.86-15.34-.32-2.32.29-2.33,2.14-4.79-.31-.24-.23-1.96-2.35-1.75-2.56,3.43.57,7.04.31,10.53.32.33.53,1.21.32,1.75.32,2.61.03,5.22,0,7.83,0,4.15,0,8.31,0,12.45,0,1.62,0,3.68.27,5.11-.32ZM258.44,180.62c-.81-1.07-.64,2.37-.68,2.67-.21,1.48-.64,2.89-.92,4.35.9.16.52-.22.72-.7.87-2.16,1.04-3.98.87-6.32ZM254.94,184.13c.8-.61,2.03-1.4,1.91-2.55-.85.55-1.86,1.48-1.91,2.55ZM246.79,188.92c-2.61-.02-5.22.01-7.82,0v.96c2.91.18,5.76-.2,8.62-.64-.24-.89-.62-.31-.8-.32Z"/>
            <path class="cls-6" d="M178.63,190.2c.99-2.51.74-5.61.62-8.28-1.25-.37-2.1.29-3.09.55-.52.13-1.34-.05-1.63.12-.21.12-.3,1.49-1,1.55,1.29-5.76,5.07-9.4,8.99-2.77.7,1.19,2.8,5.54,2.51,6.69-.09.35-.77.38-.99.67-.7.93-.11,3.43-.3,4.66l1.91-.32c-.54,2.13.69,4.34.67,6.22,0,.67-.33,1.3-.34,1.92-.02.73.19,5.27-.48,5.27-1.02-2.29-1.62-4.83-1.43-7.34,3.43,3.04,1.43-.7.14-1.89-.41-.38-1.02-.42-1.43-.8-.61-.55-1.84-2.88-2.85-2.09-.08.06.27.49.26.78-.09,2.81-.83,1.21-1.71,1.74-1.13.69-1.95,3.02-3.02,3.86-.43-2.74-1.02-5.51-.96-8.3,1.52,1.18,4.66,1.19,4.15,3.83.86.09.51,0,.63-.48.76-2.96-.97-2.3-2.66-3.4-.25-.16-1.99-1.5-2.05-1.62-.17-.3-.15-6.06,0-6.72.36-1.57,1.53-1.36,2.6-.5,1.89,1.52-.14,4.56.84,6.66-1.73.56-1.06-.22-2.55-.64-.28,1.46,2.24,2.84,3.03,1.58.23-.36.08-.75.16-.95ZM182.24,184.04c-.56-.79-.65-2.05-1.69-2.46v.48s2.23,8.77,2.23,8.77c-.11-1.93,1.74-4.37.47-6.06-.29-.39-.86-.52-1.01-.73ZM175.28,188.92v.32c.21-.11.21-.21,0-.32Z"/>
            <path class="cls-5" d="M181.66,155.09c.28.03,1.76.27,1.44.96-1.01.03-2.03-.04-3.03,0-.39.02-1.19-.24-1.11.32,3.66-.63,5.37,2.66,7.02,5.26-.1.48-4.21.99-4.99,1.08-1.37.17-5.36.63-6.36.06-.55-.32-2.04-2.17-2.29-2.81-.28-.7-.75-3.45-.71-4.1.02-.29.27-.77.46-.77,2.93,0,6.8-.32,9.58,0Z"/>
            <path class="cls-5" d="M194.27,162.11c-.21,0-.43,0-.64,0l-.96-4.47h7.18c1.37,0,6.36,1.81,6.5,3.41s-1.95.74-2.65.73c-3.18-.04-6.27.21-9.43.33Z"/>
            <path class="cls-6" d="M184.7,181.58c3.19,7.83,4.3,18.27,2.47,26.57-.42,1.92-1.58,3.5-2.15,5.35.7.73,2.32-3.03,2.48-3.42.3-.73.2-2.53,1.02-1.85-.55,6.72-6.02,9.4-9.89,3.04,1.53.52,2.24,2.07,4.15,1.59-.12-.35-.65-.77-.96-.95,1.77.14,2.31.11,3.25-1.38,3.34-5.27,1.59-22.94-.7-28.62l.32-.32Z"/>
            <path class="cls-5" d="M167.46,161.48h-3.19c1.06-1.11,2.35-.32,1.91-2.55-.56,0-.39.84-.95,1.12-.73.37-6.43-.17-7.02-.65-.34-.28-.44-.48-.3-.93.15-.49,6.54-4.08,7.76-3.66.93.33,2.3,5.47,1.8,6.66Z"/>
            <path class="cls-5" d="M181.82,211.9c-.44-.27-.94-.17-1.61-.78-1.09-.99-4.05-6.72-4.07-8.06-.01-.73,3.06-3.4,3.94-3.6,1.86-.41.02,2.22-.1,2.77-.69,3.18,2.54,6.35,1.84,9.66Z"/>
            <path class="cls-1" d="M259.72,191.79c-1.27,7.51-4.69,11.02-11.81,13.09.11-1.89-1.39-1.33-2.55-1.91,1.3-.32,4.43-.95,5.4-1.46,1.07-.56,2.03-2.84,3.06-3.01.18-.03.1.58.36.65,2.57.67,4.43-4.71,4.27-6.71l.63.95c.07-.86.24-1.69.32-2.55l.32.96Z"/>
            <path class="cls-1" d="M190.76,181.9c-1.37.23-2.29-.53-3.19-1.44-2.17-2.17-3.79-5.51-6.03-7.7-1.06-4.25,2.81-.86,4.1.69.54.64,5.52,8.16,5.12,8.45Z"/>
            <path class="cls-6" d="M152.13,177.11l.64,3.98c-.49,1.45-.11,7.68-2.55,5.1-2.16-2.29-2.53-8.75-2.24-11.8.27-2.85,1.77-4.35,2.55-.8-2.03-2.3-2.27.57-1.93,2.38.07.38.87.07.98.18.15.13-.4,1.06-.35,1.39.06.4,1.62.25.62,1.61-.41.56-1.1.31-.91,1.28.08.43.49.76.55,1.08.19.99.04,4.32,1.69,3.43.2-.11.95-1.16.95-1.29v-6.54Z"/>
            <path class="cls-4" d="M245.36,202.96c1.17.59,2.67.03,2.55,1.91-1.67.49-3.39.94-5.11,1.28-1.74-.14-1.32-1.76-2.55-1.91,1.4-.22,3.61-.9,5.11-1.28Z"/>
            <path class="cls-1" d="M234.34,211.58c.12.03.57.55.48.63-1.73.21-3.87.99-5.59.99-1.12,0-1.91-.65-2.94-.91-.86-.22-2.22.32-2.64-.71h10.7Z"/>
            <path class="cls-4" d="M190.12,187.64c.65,1.97.8,4.06,1.28,6.06l-.32.64c-.59-1.88-1.81-4.68-2.55-6.7.43-.09,1.27.13,1.6,0Z"/>
            <path class="cls-1" d="M169.69,153.5c-.76,3.33-.99,6.35.32,9.57-2.37-2.44-.99-6.59-2.55-9.42l2.23-.15Z"/>
            <polygon class="cls-4" points="225.24 213.18 222.53 213.81 214.39 214.13 217.74 213.5 225.24 213.18"/>
            <path class="cls-7" d="M177.99,190.2c.16-.05.44.04.64,0-.08.19.07.58-.16.95-.79,1.26-3.31-.12-3.03-1.58,1.49.42.82,1.2,2.55.64Z"/>
            <path class="cls-1" d="M235.14,210.31l4.29-.65c.67.19,2.35-.52,2.09.65h-6.39Z"/>
            <path class="cls-1" d="M256.85,195.63c.08,1.27-.94,2.24-1.91,2.87-.02-1.24.42-2.91,1.91-2.87Z"/>
            <path class="cls-1" d="M193.64,162.11c.21,0,.43,0,.64,0-.64.66-1.55.6-2.38.65-.37.02-1.77.22-1.77-.33,1.38-.85,2.4-.3,3.51-.32Z"/>
            <path class="cls-7" d="M160.75,173.92l-.64.32c-1.22-.44-3.07-.37-3.83-1.59,1.5.09,3.07.94,4.47,1.27Z"/>
            <path class="cls-7" d="M259.72,191.79l-.32-.96c.1-1.03-.39-2.86.64-3.51.17,1.57-.07,3.01-.32,4.47Z"/>
            <polygon class="cls-4" points="207.36 210.63 205.61 210.94 203.21 210.31 207.36 210.63"/>
            <path class="cls-7" d="M181.5,163.71s.36-.31.77-.33,2.74-.09,2.74.17c-1.14.24-2.36.27-3.52.48v-.32Z"/>
            <rect class="cls-7" x="245.28" y="206.06" width="3.32" height=".45" transform="translate(-42.41 65.53) rotate(-13.93)"/>
            <polygon class="cls-7" points="245.04 206.8 245.03 207.11 243.12 207.43 243.12 207.12 245.04 206.8"/>
            <path class="cls-4" d="M208.64,210.95v.31c-1.33.16-1.33-.47,0-.31Z"/>
            <path class="cls-7" d="M242.64,207.43c.21.11.21.21,0,.32v-.32Z"/>
            <path class="cls-8" d="M245.68,186.05c-1.64.05-3.67-.3-5.11.32-4.15,0-8.31,0-12.45,0-.33-.53-1.21-.32-1.75-.32-2.61-.03-5.22.01-7.83,0-3.5,0-7.1.25-10.53-.32-.21.2,1.51,2.32,1.75,2.56,2.46,2.45,2.47.59,4.79.31,4.32-.54,10.9.07,15.34.32,1,.06,4.36-.28,4.79.32.32.17-.29.64-.32.64h-24.9c-1.06,0-6.22-4.02-5.9-5.74,3.39,1.23,6.55.9,10.07.94,2,.03,1.42.65,3.66-.31.55-.24,1.42-.27,1.76-.96,1.17-2.4-1.95-3.99-2.08,0-.57.34-1.07.59-1.75.65-1.49.13-7.99.19-9.03-.25-1.57-.67-3.68-6.01-1.78-7.43l45.29.03c1.31.33,5.63-2.69,6.17-1.08.68,2.03-2.07,9.29-4.33,9.94-1.46.42-4.25.34-5.84.38Z"/>
            <path class="cls-8" d="M182.94,165.3c8.37.85,19.29,6.08,28.5,7.57,6.16,1,12.72.48,18.75,1.37.56.08.53-.17.48.63h-27.94c-2.15,0-1.33,4.41-1.21,5.68.03.35.38,1.09-.22,1.02-.96-2.06-1.99-4.37-1.31-6.66l-11.16-5.94-12.76-3.68c2.21.16,4.69-.22,6.86,0Z"/>
            <path class="cls-8" d="M190.12,187.64c.1-.04.55-1,1.51-1.21,4.17-.93,6.8,1.41,9.99,3.6-2.49.29-5.37-2.65-7.78-1.39-2.63,1.37-2.01,5.61-.9,7.84.23.47,3.91,5.15.52,2.99-1.02-.65-1.74-4.45-2.05-5.77-.47-2.01-.62-4.1-1.28-6.06Z"/>
            <path class="cls-7" d="M246.79,188.92c.18,0,.56-.57.8.32-2.86.44-5.71.82-8.62.64v-.96c2.6.01,5.22-.02,7.82,0Z"/>
            <path class="cls-4" d="M217.26,184.77c-.15-.28-.33-.64-.32-.96.12-3.99,3.24-2.4,2.08,0-.34.69-1.2.72-1.76.96Z"/>
            <path class="cls-7" d="M258.44,180.62c.17,2.34,0,4.16-.87,6.32-.19.48.19.86-.72.7.27-1.46.71-2.87.92-4.35.04-.3-.14-3.74.68-2.67Z"/>
            <path class="cls-4" d="M228.12,186.37c-2.6,0-5.22.03-7.83,0-.54,0-1.42.2-1.75-.32,2.6,0,5.22-.03,7.83,0,.54,0,1.42-.2,1.75.32Z"/>
            <path class="cls-7" d="M154.69,176.47c-1.1-.71-1.46-1.94-1.27-3.19.44.05.76,1.14.88,1.51.2.63.27,1.05.4,1.68Z"/>
            <path class="cls-7" d="M254.94,184.13c.05-1.08,1.06-2,1.91-2.55.12,1.15-1.11,1.94-1.91,2.55Z"/>
            <path class="cls-4" d="M245.68,186.05c-1.43.59-3.49.32-5.11.32,1.44-.62,3.47-.27,5.11-.32Z"/>
            <path class="cls-7" d="M182.24,184.04c.15.21.72.34,1.01.73,1.26,1.69-.59,4.14-.47,6.06l-2.24-8.77v-.48c1.05.41,1.15,1.67,1.7,2.46Z"/>
            <path class="cls-7" d="M175.28,188.92c.21.11.21.21,0,.32v-.32Z"/>
            <path class="cls-5" d="M213.43,204.88h-.32c-.96-1.31-1.36-2.43-.72-4.07.34-.85,2.83-1.67,3.75-1.71,4.16-.14,4.34,4.81.5,5.95-1.45.43-2.09-.37-3.21-.17Z"/>
            <path class="cls-1" d="M213.43,204.88c1.3,1.04,2.81,1.44,4.47,1.28.09.41-.61.53-.88.56-1.8.24-2.87-.43-3.91-1.84h.32Z"/>
          </g>
        </g>
      </g>
      <rect class="cls-3" x="107.06" y="135.47" width="196.77" height="7.94"/>
      <g>
        <path class="cls-2" d="M109.78,140.45h-1.43l-.23.68h-.98l1.39-3.83h1.08l1.39,3.83h-.99l-.23-.68ZM109.54,139.74l-.48-1.41-.47,1.41h.95Z"/>
        <path class="cls-2" d="M112.47,141.03c-.22-.09-.4-.23-.53-.4s-.2-.39-.21-.64h.99c.01.15.06.26.15.33.08.08.19.11.33.11s.25-.03.33-.1c.08-.07.12-.16.12-.27,0-.09-.03-.17-.1-.23s-.14-.11-.23-.15-.22-.09-.4-.14c-.25-.08-.45-.15-.61-.23-.16-.08-.29-.19-.4-.34s-.17-.34-.17-.58c0-.36.13-.64.39-.84.26-.2.59-.3,1.01-.3s.76.1,1.02.3c.26.2.4.48.41.84h-1.01c0-.13-.05-.23-.13-.3-.08-.07-.19-.11-.32-.11-.11,0-.2.03-.27.09-.07.06-.1.15-.1.27,0,.12.06.22.17.29.12.07.3.14.55.22.25.08.45.16.6.24.15.08.29.19.4.33.11.15.17.33.17.56s-.06.42-.17.59c-.11.18-.27.32-.48.43s-.46.16-.75.16-.53-.05-.75-.14Z"/>
        <path class="cls-2" d="M116.25,141.03c-.22-.09-.4-.23-.53-.4s-.2-.39-.21-.64h.99c.01.15.06.26.15.33.08.08.19.11.33.11s.25-.03.33-.1c.08-.07.12-.16.12-.27,0-.09-.03-.17-.1-.23s-.14-.11-.23-.15-.22-.09-.4-.14c-.25-.08-.45-.15-.61-.23-.16-.08-.29-.19-.4-.34s-.17-.34-.17-.58c0-.36.13-.64.39-.84.26-.2.59-.3,1.01-.3s.76.1,1.02.3c.26.2.4.48.41.84h-1.01c0-.13-.05-.23-.13-.3-.08-.07-.19-.11-.32-.11-.11,0-.2.03-.27.09-.07.06-.1.15-.1.27,0,.12.06.22.17.29.12.07.3.14.55.22.25.08.45.16.6.24.15.08.29.19.4.33.11.15.17.33.17.56s-.06.42-.17.59c-.11.18-.27.32-.48.43s-.46.16-.75.16-.53-.05-.75-.14Z"/>
        <path class="cls-2" d="M120.22,140.91c-.3-.17-.54-.4-.71-.7-.18-.3-.26-.64-.26-1.01s.09-.71.26-1.01c.18-.3.41-.53.71-.7.3-.17.63-.25.99-.25s.69.08.99.25c.3.17.54.4.71.7.17.3.26.63.26,1.01s-.09.71-.26,1.01c-.17.3-.41.53-.71.7-.3.17-.63.25-.99.25s-.69-.08-.99-.25ZM121.94,140c.18-.2.28-.47.28-.8s-.09-.6-.28-.8c-.18-.2-.43-.3-.73-.3s-.56.1-.74.3c-.18.2-.28.47-.28.8s.09.6.28.8c.18.2.43.3.74.3s.55-.1.73-.3Z"/>
        <path class="cls-2" d="M124.2,138.19c.16-.3.39-.53.68-.69.29-.17.62-.25,1-.25.45,0,.84.12,1.17.36.32.24.54.57.65.98h-1.03c-.08-.16-.19-.28-.33-.36-.14-.08-.3-.12-.47-.12-.29,0-.52.1-.7.3s-.27.46-.27.79.09.6.27.8c.18.2.41.3.7.3.18,0,.34-.04.47-.13.14-.08.25-.2.33-.36h1.03c-.11.41-.33.74-.65.98s-.71.36-1.17.36c-.37,0-.7-.08-1-.25-.29-.17-.52-.4-.68-.69-.16-.29-.25-.63-.25-1.01s.08-.72.25-1.01Z"/>
        <path class="cls-2" d="M129.63,137.29v3.83h-.93v-3.83h.93Z"/>
        <path class="cls-2" d="M133.11,140.45h-1.43l-.23.68h-.98l1.39-3.83h1.08l1.39,3.83h-.99l-.23-.68ZM132.88,139.74l-.48-1.41-.47,1.41h.95Z"/>
        <path class="cls-2" d="M135.26,138.19c.16-.3.39-.53.68-.69.29-.17.62-.25,1-.25.45,0,.84.12,1.17.36.32.24.54.57.65.98h-1.03c-.08-.16-.19-.28-.33-.36-.14-.08-.3-.12-.47-.12-.29,0-.52.1-.7.3s-.27.46-.27.79.09.6.27.8c.18.2.41.3.7.3.18,0,.34-.04.47-.13.14-.08.25-.2.33-.36h1.03c-.11.41-.33.74-.65.98s-.71.36-1.17.36c-.37,0-.7-.08-1-.25-.29-.17-.52-.4-.68-.69-.16-.29-.25-.63-.25-1.01s.08-.72.25-1.01ZM137.73,141.5c.14.1.21.26.21.47s-.07.36-.22.47c-.15.11-.33.16-.53.16h-.84v-.51h.71c.07,0,.13-.01.16-.03.04-.02.05-.06.05-.11s-.02-.09-.05-.11c-.04-.02-.09-.03-.16-.03h-.39v-.7h.56v.24c.19,0,.35.05.5.16Z"/>
        <path class="cls-2" d="M142.14,140.45h-1.43l-.23.68h-.98l1.39-3.83h1.08l1.39,3.83h-.99l-.23-.68ZM141.09,136.19c.08,0,.15.01.21.04.06.02.13.06.22.11.07.04.12.06.16.08.04.02.08.02.13.02.13,0,.21-.08.23-.25h.48c-.09.54-.34.81-.75.81-.08,0-.15-.01-.21-.04-.06-.02-.13-.06-.22-.11-.07-.04-.12-.06-.16-.08-.04-.02-.08-.02-.12-.02-.13,0-.21.08-.24.25h-.47c.09-.54.34-.81.75-.81ZM141.91,139.74l-.48-1.41-.47,1.41h.95Z"/>
        <path class="cls-2" d="M145.02,140.91c-.3-.17-.54-.4-.71-.7-.18-.3-.26-.64-.26-1.01s.09-.71.26-1.01c.18-.3.41-.53.71-.7.3-.17.63-.25.99-.25s.69.08.99.25c.3.17.54.4.71.7.17.3.26.63.26,1.01s-.09.71-.26,1.01c-.17.3-.41.53-.71.7-.3.17-.63.25-.99.25s-.69-.08-.99-.25ZM146.75,140c.18-.2.28-.47.28-.8s-.09-.6-.28-.8c-.18-.2-.43-.3-.73-.3s-.56.1-.74.3c-.18.2-.28.47-.28.8s.09.6.28.8c.18.2.43.3.74.3s.55-.1.73-.3Z"/>
        <path class="cls-2" d="M153.46,139.49c.13.17.2.37.2.59,0,.32-.11.57-.34.76-.22.19-.54.28-.94.28h-1.78v-3.83h1.72c.39,0,.69.09.91.27.22.18.33.42.33.73,0,.23-.06.41-.18.56-.12.15-.28.25-.47.31.22.05.4.16.53.33ZM151.53,138.85h.61c.15,0,.27-.03.35-.1.08-.07.12-.17.12-.3s-.04-.24-.12-.31c-.08-.07-.2-.11-.35-.11h-.61v.82ZM152.58,140.27c.09-.07.13-.18.13-.32s-.04-.24-.13-.32c-.09-.08-.21-.12-.37-.12h-.68v.86h.69c.16,0,.28-.04.36-.11Z"/>
        <path class="cls-2" d="M156.58,141.12l-.8-1.45h-.22v1.45h-.93v-3.83h1.57c.3,0,.56.05.77.16.21.11.37.25.48.43s.16.39.16.61c0,.25-.07.48-.22.68s-.36.34-.64.43l.88,1.52h-1.05ZM155.56,139.02h.58c.17,0,.3-.04.38-.13.09-.08.13-.2.13-.35s-.04-.27-.13-.35-.21-.13-.38-.13h-.58v.96Z"/>
        <path class="cls-2" d="M160.99,140.45h-1.43l-.23.68h-.98l1.39-3.83h1.08l1.39,3.83h-.99l-.23-.68ZM160.75,139.74l-.48-1.41-.47,1.41h.95Z"/>
        <path class="cls-2" d="M163.68,141.03c-.22-.09-.4-.23-.53-.4s-.2-.39-.21-.64h.99c.01.15.06.26.15.33.08.08.19.11.33.11s.25-.03.33-.1c.08-.07.12-.16.12-.27,0-.09-.03-.17-.1-.23s-.14-.11-.23-.15-.22-.09-.4-.14c-.25-.08-.45-.15-.61-.23-.16-.08-.29-.19-.4-.34s-.17-.34-.17-.58c0-.36.13-.64.39-.84.26-.2.59-.3,1.01-.3s.76.1,1.02.3c.26.2.4.48.41.84h-1.01c0-.13-.05-.23-.13-.3-.08-.07-.19-.11-.32-.11-.11,0-.2.03-.27.09-.07.06-.1.15-.1.27,0,.12.06.22.17.29.12.07.3.14.55.22.25.08.45.16.6.24.15.08.29.19.4.33.11.15.17.33.17.56s-.06.42-.17.59c-.11.18-.27.32-.48.43s-.46.16-.75.16-.53-.05-.75-.14Z"/>
        <path class="cls-2" d="M167.76,137.29v3.83h-.93v-3.83h.93Z"/>
        <path class="cls-2" d="M169.8,140.42h1.22v.71h-2.15v-3.83h.93v3.12Z"/>
        <path class="cls-2" d="M172.83,138.03v.8h1.25v.7h-1.25v.86h1.41v.74h-2.35v-3.83h2.35v.74h-1.41Z"/>
        <path class="cls-2" d="M176.2,137.29v3.83h-.93v-3.83h.93Z"/>
        <path class="cls-2" d="M179.26,141.12l-.8-1.45h-.22v1.45h-.93v-3.83h1.57c.3,0,.56.05.77.16.21.11.37.25.48.43s.16.39.16.61c0,.25-.07.48-.22.68s-.36.34-.64.43l.88,1.52h-1.05ZM178.24,139.02h.58c.17,0,.3-.04.38-.13.09-.08.13-.2.13-.35s-.04-.27-.13-.35-.21-.13-.38-.13h-.58v.96Z"/>
        <path class="cls-2" d="M183.67,140.45h-1.43l-.23.68h-.98l1.39-3.83h1.08l1.39,3.83h-.99l-.23-.68ZM183.43,139.74l-.48-1.41-.47,1.41h.95Z"/>
        <path class="cls-2" d="M189.91,137.54c.3.16.54.38.7.67s.25.62.25,1-.08.71-.25,1-.4.52-.7.68c-.3.16-.66.24-1.06.24h-1.43v-3.83h1.43c.4,0,.76.08,1.06.24ZM189.62,140.03c.2-.2.29-.47.29-.82s-.1-.63-.29-.82-.47-.29-.82-.29h-.44v2.24h.44c.35,0,.63-.1.82-.29Z"/>
        <path class="cls-2" d="M192.74,138.03v.8h1.25v.7h-1.25v.86h1.41v.74h-2.35v-3.83h2.35v.74h-1.41Z"/>
        <path class="cls-2" d="M199.62,137.29v.74h-1.01v3.09h-.93v-3.09h-1.01v-.74h2.96Z"/>
        <path class="cls-2" d="M202.47,141.12l-.8-1.45h-.22v1.45h-.93v-3.83h1.57c.3,0,.56.05.77.16.21.11.37.25.48.43s.16.39.16.61c0,.25-.07.48-.22.68s-.36.34-.64.43l.88,1.52h-1.05ZM201.45,139.02h.58c.17,0,.3-.04.38-.13.09-.08.13-.2.13-.35s-.04-.27-.13-.35-.21-.13-.38-.13h-.58v.96Z"/>
        <path class="cls-2" d="M205.43,138.03v.8h1.25v.7h-1.25v.86h1.41v.74h-2.35v-3.83h2.35v.74h-1.41Z"/>
        <path class="cls-2" d="M208.81,137.29v3.83h-.93v-3.83h.93Z"/>
        <path class="cls-2" d="M213.34,141.12h-.93l-1.56-2.36v2.36h-.93v-3.83h.93l1.56,2.37v-2.37h.93v3.83Z"/>
        <path class="cls-2" d="M216.82,140.45h-1.43l-.23.68h-.98l1.39-3.83h1.08l1.39,3.83h-.99l-.23-.68ZM216.59,139.74l-.48-1.41-.47,1.41h.95Z"/>
        <path class="cls-2" d="M223.22,137.29v3.83h-.93v-2.3l-.86,2.3h-.75l-.86-2.3v2.3h-.93v-3.83h1.1l1.07,2.65,1.06-2.65h1.1Z"/>
        <path class="cls-2" d="M225.25,138.03v.8h1.25v.7h-1.25v.86h1.41v.74h-2.35v-3.83h2.35v.74h-1.41Z"/>
        <path class="cls-2" d="M231.12,141.12h-.93l-1.56-2.36v2.36h-.93v-3.83h.93l1.56,2.37v-2.37h.93v3.83Z"/>
        <path class="cls-2" d="M234.98,137.29v.74h-1.01v3.09h-.93v-3.09h-1.01v-.74h2.96Z"/>
        <path class="cls-2" d="M236.69,140.91c-.3-.17-.54-.4-.71-.7-.18-.3-.26-.64-.26-1.01s.09-.71.26-1.01c.18-.3.42-.53.71-.7.3-.17.63-.25.99-.25s.69.08.99.25c.3.17.54.4.71.7.17.3.26.63.26,1.01s-.09.71-.26,1.01c-.17.3-.41.53-.71.7-.3.17-.63.25-.99.25s-.69-.08-.99-.25ZM238.42,140c.18-.2.28-.47.28-.8s-.09-.6-.28-.8c-.18-.2-.43-.3-.73-.3s-.56.1-.74.3c-.18.2-.28.47-.28.8s.09.6.28.8c.18.2.43.3.74.3s.55-.1.73-.3Z"/>
        <path class="cls-2" d="M243.2,138.03v.8h1.25v.7h-1.25v.86h1.41v.74h-2.35v-3.83h2.35v.74h-1.41Z"/>
        <path class="cls-2" d="M248.27,137.29v3.83h-.93v-3.83h.93Z"/>
        <path class="cls-2" d="M252.79,141.12h-.93l-1.56-2.36v2.36h-.93v-3.83h.93l1.56,2.37v-2.37h.93v3.83Z"/>
        <path class="cls-2" d="M253.98,138.19c.16-.3.39-.53.68-.69.29-.17.62-.25,1-.25.46,0,.84.12,1.17.36.32.24.54.57.65.98h-1.03c-.08-.16-.19-.28-.33-.36-.14-.08-.3-.12-.47-.12-.29,0-.52.1-.7.3-.18.2-.27.46-.27.79s.09.6.27.8c.18.2.41.3.7.3.18,0,.34-.04.47-.13.14-.08.25-.2.33-.36h1.03c-.11.41-.33.74-.65.98-.32.24-.71.36-1.17.36-.37,0-.7-.08-1-.25-.29-.17-.52-.4-.68-.69-.16-.29-.25-.63-.25-1.01s.08-.72.25-1.01Z"/>
        <path class="cls-2" d="M259.41,140.42h1.22v.71h-2.16v-3.83h.93v3.12Z"/>
        <path class="cls-2" d="M262.42,137.29v2.29c0,.23.06.41.17.53.11.12.28.19.5.19s.39-.06.5-.19.17-.3.17-.53v-2.29h.93v2.29c0,.34-.07.63-.22.87s-.34.41-.59.53c-.25.12-.52.18-.82.18s-.57-.06-.81-.18-.43-.3-.56-.53c-.14-.24-.21-.53-.21-.87v-2.29h.93Z"/>
        <path class="cls-2" d="M266.41,141.03c-.22-.09-.4-.23-.53-.4s-.2-.39-.21-.64h.99c.01.15.06.26.15.33.08.08.19.11.33.11s.25-.03.33-.1c.08-.07.12-.16.12-.27,0-.09-.03-.17-.09-.23-.06-.06-.14-.11-.24-.15s-.22-.09-.4-.14c-.25-.08-.45-.15-.61-.23-.16-.08-.29-.19-.4-.34-.11-.15-.17-.34-.17-.58,0-.36.13-.64.39-.84.26-.2.59-.3,1.01-.3s.76.1,1.02.3c.26.2.4.48.42.84h-1.01c0-.13-.05-.23-.13-.3-.08-.07-.19-.11-.33-.11-.11,0-.2.03-.27.09s-.1.15-.1.27c0,.12.06.22.17.29.12.07.3.14.54.22.25.08.45.16.6.24.16.08.29.19.4.33.11.15.17.33.17.56s-.06.42-.17.59c-.11.18-.27.32-.48.43s-.46.16-.75.16-.53-.05-.75-.14Z"/>
        <path class="cls-2" d="M271.94,140.45h-1.43l-.23.68h-.98l1.39-3.83h1.08l1.39,3.83h-.99l-.23-.68ZM270.89,136.19c.08,0,.15.01.21.04.06.02.13.06.22.11.07.04.12.06.16.08.04.02.08.02.13.02.13,0,.21-.08.23-.25h.48c-.09.54-.34.81-.75.81-.08,0-.15-.01-.21-.04-.06-.02-.13-.06-.22-.11-.07-.04-.12-.06-.16-.08-.04-.02-.08-.02-.12-.02-.13,0-.21.08-.24.25h-.47c.09-.54.34-.81.75-.81ZM271.71,139.74l-.48-1.41-.47,1.41h.95Z"/>
        <path class="cls-2" d="M274.82,140.91c-.3-.17-.54-.4-.71-.7-.18-.3-.26-.64-.26-1.01s.09-.71.26-1.01c.18-.3.42-.53.71-.7.3-.17.63-.25.99-.25s.69.08.99.25c.3.17.54.4.71.7.17.3.26.63.26,1.01s-.09.71-.26,1.01c-.17.3-.41.53-.71.7-.3.17-.63.25-.99.25s-.69-.08-.99-.25ZM276.55,140c.18-.2.28-.47.28-.8s-.09-.6-.28-.8c-.18-.2-.43-.3-.73-.3s-.56.1-.74.3c-.18.2-.28.47-.28.8s.09.6.28.8c.18.2.43.3.74.3s.55-.1.73-.3Z"/>
        <path class="cls-2" d="M281.03,141.03c-.22-.09-.4-.23-.53-.4s-.2-.39-.21-.64h.99c.01.15.06.26.15.33.08.08.19.11.33.11s.25-.03.33-.1c.08-.07.12-.16.12-.27,0-.09-.03-.17-.09-.23-.06-.06-.14-.11-.24-.15s-.22-.09-.4-.14c-.25-.08-.45-.15-.61-.23-.16-.08-.29-.19-.4-.34-.11-.15-.17-.34-.17-.58,0-.36.13-.64.39-.84.26-.2.59-.3,1.01-.3s.76.1,1.02.3c.26.2.4.48.42.84h-1.01c0-.13-.05-.23-.13-.3-.08-.07-.19-.11-.33-.11-.11,0-.2.03-.27.09s-.1.15-.1.27c0,.12.06.22.17.29.12.07.3.14.54.22.25.08.45.16.6.24.16.08.29.19.4.33.11.15.17.33.17.56s-.06.42-.17.59c-.11.18-.27.32-.48.43s-.46.16-.75.16-.53-.05-.75-.14Z"/>
        <path class="cls-2" d="M285,140.91c-.3-.17-.54-.4-.71-.7-.18-.3-.26-.64-.26-1.01s.09-.71.26-1.01c.18-.3.42-.53.71-.7.3-.17.63-.25.99-.25s.69.08.99.25c.3.17.54.4.71.7.17.3.26.63.26,1.01s-.09.71-.26,1.01c-.17.3-.41.53-.71.7-.3.17-.63.25-.99.25s-.69-.08-.99-.25ZM286.73,140c.18-.2.28-.47.28-.8s-.09-.6-.28-.8c-.18-.2-.43-.3-.73-.3s-.56.1-.74.3c-.18.2-.28.47-.28.8s.09.6.28.8c.18.2.43.3.74.3s.55-.1.73-.3Z"/>
        <path class="cls-2" d="M288.98,138.19c.16-.3.39-.53.68-.69.29-.17.62-.25,1-.25.46,0,.84.12,1.17.36.32.24.54.57.65.98h-1.03c-.08-.16-.19-.28-.33-.36-.14-.08-.3-.12-.47-.12-.29,0-.52.1-.7.3-.18.2-.27.46-.27.79s.09.6.27.8c.18.2.41.3.7.3.18,0,.34-.04.47-.13.14-.08.25-.2.33-.36h1.03c-.11.41-.33.74-.65.98-.32.24-.71.36-1.17.36-.37,0-.7-.08-1-.25-.29-.17-.52-.4-.68-.69-.16-.29-.25-.63-.25-1.01s.08-.72.25-1.01Z"/>
        <path class="cls-2" d="M294.41,137.29v3.83h-.93v-3.83h.93Z"/>
        <path class="cls-2" d="M297.9,140.45h-1.43l-.23.68h-.98l1.39-3.83h1.08l1.39,3.83h-.99l-.23-.68ZM297.66,139.74l-.48-1.41-.47,1.41h.95Z"/>
        <path class="cls-2" d="M300.89,140.42h1.22v.71h-2.16v-3.83h.93v3.12Z"/>
      </g>
    </g>
  </g>
</svg>